<?xml version="1.0" standalone="no"?>
<!DOCTYPE svg PUBLIC "-//W3C//DTD SVG 1.1//EN" "http://www.w3.org/Graphics/SVG/1.1/DTD/svg11.dtd" >
<svg>
<metadata>
Created by FontForge 20090914 at Fri Dec  9 17:20:46 2016
 By www-data
Copyright (c) 2015 by Aritra Das. All rights reserved.
</metadata>
<defs>
<font id="Jaden" horiz-adv-x="639" >
  <font-face 
    font-family="Jaden"
    font-weight="400"
    font-stretch="normal"
    units-per-em="1000"
    panose-1="2 11 5 5 0 0 0 2 0 4"
    ascent="800"
    descent="-200"
    x-height="885"
    cap-height="890"
    bbox="7.00098 -220 1193 956"
    underline-thickness="50"
    underline-position="-50"
    unicode-range="U+0020-U+007A"
  />
<missing-glyph horiz-adv-x="500" 
 />
    <glyph glyph-name=".notdef" horiz-adv-x="500" 
 />
    <glyph glyph-name="space" unicode=" " horiz-adv-x="315" 
 />
    <glyph glyph-name="exclam" unicode="!" horiz-adv-x="366" 
d="M106 272v575h154v-575h-154zM286 92c0 -30 -10.002 -55.334 -30.002 -76.001c-19.333 -20 -44.666 -30 -75.999 -30c-30 0 -55 10 -75 30c-20.667 20.667 -31 46 -31 76c0 14 2.66699 28 8 42c5.33301 12.667 13.333 24 24 34c10 10.667 21.333 18.334 34 23.001
c14 6 28 9 42 9c15.333 0 29 -2.33301 41 -7c12.667 -5.33301 24 -13.333 34 -24c10.667 -10 18.334 -21.333 23.001 -34c6 -14 9 -27.333 9 -40z" />
    <glyph glyph-name="quotedbl.003" unicode="&#x22;" horiz-adv-x="531" 
d="M465 465h-146v382h146v-382zM212 465h-146v382h146v-382z" />
    <glyph glyph-name="quotedbl" unicode="#" horiz-adv-x="810" 
d="M714 476h-111l-28 -198h110l-13 -108h-112l-23 -170h-118l23 170h-133l-23 -170h-118l23 170h-111l16 108h111l27 198h-111l16 108h110l24 171h118l-25 -171h133l25 171h117l-24 -171h111zM352 476l-28 -198h134l27 198h-133z" />
    <glyph glyph-name="numbersign" unicode="$" horiz-adv-x="659" 
d="M557 335c17.333 -30 26 -64.998 26 -104.998c0 -40.667 -7.66699 -76.334 -23 -107.001c-14.667 -29.333 -35.334 -55 -62.001 -77c-24.667 -20.667 -54.334 -36.334 -89.001 -47.001c-12 -4.66699 -25 -8 -39 -10v-106h-88v99c-48 0.666992 -93.667 18.334 -137 53.001
c-44 34.667 -75.333 80.667 -94 138l121 54c9.33301 -28 23 -50 41 -66c18.667 -16.667 37.334 -27.334 56.001 -32.001l14 -4v241l-14 7c-30 14 -57.333 31.667 -82 53c-24.667 20.667 -45.667 45.667 -63 75c-16.667 28.667 -25 62.334 -25 101.001
c0 37.333 6.33301 71.333 19 102c12 30 28.667 56.333 50 79s46.666 40.667 75.999 54c12 5.33301 26 9.66602 42 12.999v106h88v-100c34.667 -3.33301 68.667 -16.333 102 -39c40.667 -26 71.334 -63.333 92.001 -112l-125 -57c-14 29.333 -33 49.333 -57 60
c-2.66699 2 -7 3.66699 -13 5v-225l36 -16c30.667 -14.667 59.334 -32.334 86.001 -53.001c26.667 -21.333 48.667 -46.666 66 -75.999zM283 698.002c-10.667 -5.33301 -20.333 -13 -29 -23c-16.667 -18.667 -25 -40.667 -25 -66c0 -24.667 8.66699 -44.667 26 -60
c6.66699 -6.66699 15.667 -13.667 27 -21v169zM371.001 134.002c7.33301 3.33301 12.333 5.99902 15 7.99902c16.667 10 30 22.333 40 37c10 16.667 15 34.334 15 53.001c0 20 -8.33301 37.667 -25 53c-11.333 10 -26.333 21 -45 33v-184z" />
    <glyph glyph-name="dollar" unicode="%" horiz-adv-x="923" 
d="M417 682c0 -24 -4.33301 -47 -13 -69s-21 -40.667 -37 -56c-15.333 -16 -33.333 -28.333 -54 -37s-42.334 -13 -65.001 -13c-24 0 -46 4.33301 -66 13c-20.667 8.66699 -38.667 21 -54 37c-15.333 15.333 -27.666 34 -36.999 56c-8.66699 22 -13 45 -13 69
s4.33301 47 13 69c9.33301 22 21.666 40.667 36.999 56c15.333 16 33.333 28.333 54 37c20 8.66699 42 13 66 13c22.667 0 44.334 -4.33301 65.001 -13c21.333 -8.66699 40 -21 56 -37c15.333 -15.333 27.333 -34 36 -56s13 -45 13 -69h-1zM310 682
c0 18.667 -5.66699 34 -17 46c-12.667 13.333 -28.334 20 -47.001 20s-34 -6.66699 -46 -20c-12 -14 -18 -29.333 -18 -46s6 -32 18 -46c12 -13.333 27.333 -20 46 -20s34.334 6.66699 47.001 20c12 14 18 29.333 18 46h-1zM272 -1h-159l532 848h158zM842 165
c0 -24 -4.66406 -47 -13.9971 -69c-8.66699 -22 -20.667 -40.667 -36 -56c-15.333 -16 -33.333 -28.333 -54 -37c-21.333 -8.66699 -43.333 -13 -66 -13c-23.333 0 -45.333 4.33301 -66 13s-38.667 21 -54 37c-15.333 15.333 -27.333 34 -36 56s-13 45 -13 69
s4.33301 47 13 69s20.667 40.667 36 56s33.666 27.666 54.999 36.999c20.667 8.66699 42.667 13 66 13c22.667 0 44.667 -4.33301 66 -13c21.333 -9.33301 39.666 -21.666 54.999 -36.999s27.666 -34 36.999 -56c8.66699 -22 13 -45 13 -69h-2zM736.003 165
c0 17.333 -6.66699 32.668 -20 46.001s-28.666 20 -45.999 20c-19.333 0 -34.666 -6.66699 -45.999 -20c-12.667 -14 -19 -29.333 -19 -46s6.33301 -32 19 -46c11.333 -13.333 26.666 -20 45.999 -20c17.333 0 32.666 6.66699 45.999 20s20 28.666 20 45.999z" />
    <glyph glyph-name="percent" unicode="&#x26;" horiz-adv-x="832" 
d="M275 407l-30 -31.002c-8.66699 -10 -16.334 -20 -23.001 -30c-7.33301 -10.667 -12.333 -21.667 -15 -33c-4 -12.667 -6 -26.667 -6 -42c0 -19.333 4 -38 12 -56c7.33301 -17.333 18 -33 32 -47s29.333 -24.667 46 -32c18.667 -8 38.334 -12 59.001 -12h16
c4.66699 0 9.33398 1 14.001 3l2 -4l10 7l1 1c11.333 4 22.333 9.33301 33 16c10.667 7.33301 20 15 28 23l6 6l-2 1l10 7l-8 -8l3 -2l18 20l6 4l1 3l87 96l7 -4l208 -75l-122 -22l-89 -94l-6 6l-31 -32c-24 -26 -53.333 -46.333 -88 -61c-32 -14 -67 -21 -105 -21
c-38.667 0 -74.667 7.33301 -108 22c-32 14 -61 34 -87 60c-25.333 24.667 -45 54.334 -59 89.001c-14 33.333 -21 69.666 -21 108.999c0 38.667 7 74.667 21 108c14.667 34 34.334 64.333 59.001 91l32 33c-26.667 38 -40 80 -40 126c0 26.667 5.33301 53.334 16 80.001
c9.33301 24.667 23.666 46.667 42.999 66c17.333 17.333 38.666 32 63.999 44c24.667 10.667 51 16 79 16c26.667 0 52 -4.66699 76 -14c24.667 -10 45.334 -23.667 62.001 -41c18 -17.333 32.333 -37.333 43 -60c6 -12 8.16699 -25 6.5 -39s-2.5 -28 -2.5 -42
c0 -24.667 -8.5 -45.834 -25.5 -63.501s-37.667 -32.167 -62 -43.5s-49.333 -19.833 -75 -25.5s-46.5 -9.66699 -62.5 -12s-25.167 -3.16602 -27.5 -2.49902s8.16699 2.66699 31.5 6l91 83c4.66699 8 9 17.667 13 29c3.33301 10.667 5 20.334 5 29.001
c0 18.667 -7.33301 34.334 -22 47.001c-14.667 12 -31 18 -49 18c-20.667 0 -38.334 -7.33301 -53.001 -22s-22 -32.334 -22 -53.001c0 -10 0.5 -20.333 1.5 -31s5.16699 -19.667 12.5 -27l50 -91l-54 -81l-9 8zM263 441.998l76 43l286 -509l-76 -43z" />
    <glyph glyph-name="ampersand" unicode="'" horiz-adv-x="278" 
d="M212 465h-146v382h146v-382z" />
    <glyph glyph-name="quotesingle" unicode="(" horiz-adv-x="488" 
d="M411 787c-30 -4.66699 -56.667 -14.6709 -80 -30.0039c-24 -16 -42.333 -35 -55 -57c-13.333 -24 -24.333 -47.333 -33 -70c-9.33301 -24 -15.666 -49.333 -18.999 -76c-3.33301 -27.333 -5.33301 -48.333 -6 -63c-0.666992 -8 -1.16699 -15.667 -1.5 -23
s-0.5 -15.333 -0.5 -24c0 -8 0.166992 -15.833 0.5 -23.5s0.833008 -15.5 1.5 -23.5c0.666992 -14.667 2.66699 -36 6 -64c3.33301 -26 9.66602 -51.333 18.999 -76c8.66699 -23.333 19.667 -46.333 33 -69c12.667 -22 31 -41 55 -57c23.333 -15.333 50 -25.333 80 -30v-112
c-35.333 2.66699 -69.666 11 -102.999 25c-32 13.333 -59 30 -81 50c-21.333 18.667 -41.333 41.334 -60 68.001c-16.667 24.667 -31 50.667 -43 78c-10.667 26.667 -19.334 54.334 -26.001 83.001c-6.66699 28 -11 54.333 -13 79c-2.66699 24 -4 46.667 -4 68
s1.33301 44 4 68c2 24 6.33301 50.333 13 79s15.334 56.334 26.001 83.001c12 27.333 26.333 53.333 43 78c18.667 26.667 38.667 49.334 60 68.001c22 20 49 36.667 81 50c33.333 14 67.666 22.333 102.999 25v-112v8z" />
    <glyph glyph-name="parenleft" unicode=")" horiz-adv-x="488" 
d="M78 883c36 -2.66699 70.667 -11 104 -25c32 -13.333 59 -29.666 81 -48.999c21.333 -19.333 41 -42.333 59 -69c17.333 -24.667 31.666 -50.667 42.999 -78c11.333 -26 20.333 -53.333 27 -82s11 -55 13 -79c2 -24.667 3 -47.667 3 -69s-1 -44 -3 -68
s-6.33301 -50.333 -13 -79s-15.667 -56.334 -27 -83.001s-25.666 -52.667 -42.999 -78c-18 -26 -37.667 -48.667 -59 -68c-22 -20 -49 -36.333 -81 -49c-33.333 -14 -68 -22.667 -104 -26v113c30 4 56.667 13.667 80 29c24.667 16 43 35 55 57
c13.333 23.333 24.333 46.666 33 69.999c10 24 16.333 49.333 19 76c4 27.333 6.33301 48.333 7 63c0.666992 8.66699 1.16699 16.834 1.5 24.501s0.5 15.5 0.5 23.5s-0.166992 15.667 -0.5 23s-0.833008 15 -1.5 23c-0.666992 14.667 -3 36 -7 64
c-2.66699 26 -9 51.333 -19 76c-8.66699 22.667 -19.667 45.667 -33 69c-12 22 -30.333 41 -55 57c-23.333 15.333 -50 25.333 -80 30v104z" />
    <glyph glyph-name="parenright" unicode="*" horiz-adv-x="565" 
d="M323 694l92 -124l-71 -41l-61 140l-62 -140l-70 41l91 124l-154 -15v79l154 -15l-91 124l70 41l62 -140l61 140l71 -41l-92 -124l154 15v-79z" />
    <glyph glyph-name="asterisk" unicode="+" horiz-adv-x="768" 
d="M448 361v-219h-128v219h-234v125h234v220h128v-220h235v-125h-235z" />
    <glyph glyph-name="plus" unicode="," horiz-adv-x="388" 
d="M201 -216h-91v327h168z" />
    <glyph glyph-name="comma" unicode="-" horiz-adv-x="603" 
d="M77 361v125h449v-125h-449z" />
    <glyph glyph-name="hyphen" unicode="." horiz-adv-x="366" 
d="M286 92c0 -30 -10.002 -55.334 -30.002 -76.001c-19.333 -20 -44.666 -30 -75.999 -30c-30 0 -55 10 -75 30c-20.667 20.667 -31 46 -31 76c0 14 2.66699 28 8 42c5.33301 12.667 13.333 24 24 34c10 10.667 21.333 18.334 34 23.001c14 6 28 9 42 9
c15.333 0 29 -2.33301 41 -7c12.667 -5.33301 24 -13.333 34 -24c10.667 -10 18.334 -21.333 23.001 -34c6 -14 9 -27.333 9 -40z" />
    <glyph glyph-name="period" unicode="/" horiz-adv-x="703" 
d="M202 -220h-158l457 1100h158z" />
    <glyph glyph-name="slash" unicode="0" horiz-adv-x="813" 
d="M810 471c0 -16 -0.828125 -32.333 -2.49512 -49s-3.83398 -34.334 -6.50098 -53.001c-4 -18.667 -8.33301 -36.834 -13 -54.501s-10.334 -35.5 -17.001 -53.5c-6.66699 -19.333 -14.167 -37.333 -22.5 -54l-25.5 -51c-20.667 -33.333 -45.334 -62.666 -74.001 -87.999
c-30 -26 -62.333 -47 -97 -63c-34 -14.667 -74.667 -22 -122 -22c-46.667 0 -88 7.33301 -124 22c-35.333 16 -67.333 37 -96 63c-28.667 25.333 -53.334 54.666 -74.001 87.999c-10 17.333 -19 34.333 -27 51s-15.667 34.667 -23 54c-6.66699 18 -12.167 35.833 -16.5 53.5
s-8.16602 35.834 -11.499 54.501s-5.5 36.334 -6.5 53.001s-1.5 33 -1.5 49s0.5 32.5 1.5 49.5s3.16699 34.5 6.5 52.5c3.33301 19.333 7.16602 37.5 11.499 54.5s9.83301 34.5 16.5 52.5l23 50c8 16.667 17 33 27 49c21.333 32 46 59.667 74 83
c28 24.667 60.333 44.334 97 59.001s78 22 124 22c44.667 0 85.334 -7.33301 122.001 -22c37.333 -14.667 70.333 -34.334 99 -59.001c28 -23.333 52.667 -51 74 -83c10 -16 19.167 -32.167 27.5 -48.5s16.166 -32.833 23.499 -49.5c6.66699 -18 12.167 -35.5 16.5 -52.5
s8.16602 -35.167 11.499 -54.5c3.33301 -18 5.5 -35.5 6.5 -52.5s1.5 -33.5 1.5 -49.5zM607.005 466c0 12 -0.333984 25.3311 -1.00098 39.998s-1.66699 30.667 -3 48c-3.33301 18 -7 35.333 -11 52s-9.33301 33.334 -16 50.001c-6.66699 16 -14.5 31 -23.5 45
s-19.833 26.333 -32.5 37c-24.667 23.333 -57.334 35 -98.001 35c-42 0 -75 -11.333 -99 -34c-12 -10.667 -22.667 -22.667 -32 -36s-17.333 -28 -24 -44s-12.167 -32.167 -16.5 -48.5s-7.16602 -33.166 -8.49902 -50.499c-2 -18 -3.33301 -34 -4 -48s-1 -27 -1 -39
c0 -8 0.166992 -16.333 0.5 -25s0.833008 -18.667 1.5 -30c0.666992 -12 1.66699 -23.667 3 -35l4 -34c3.33301 -12.667 6.83301 -24.834 10.5 -36.501l10.5 -34.5c8 -22 19.333 -42 34 -60s32 -33 52 -45c20.667 -12 45.334 -18 74.001 -18
c27.333 0 50.666 5.66699 69.999 17c22 11.333 39.333 26 52 44c7.33301 8.66699 13.833 17.834 19.5 27.501s10.834 20.5 15.501 32.5c4.66699 11.333 8.66699 22.833 12 34.5s6 22.834 8 33.501l4 35c1.33301 11.333 3.33301 22.666 6 33.999
c0.666992 11.333 1.16699 21.5 1.5 30.5s0.5 17.5 0.5 25.5z" />
    <glyph glyph-name="zero" unicode="1" horiz-adv-x="404" 
d="M124 0v776h-100v18l238 138h21v-932h-159z" />
    <glyph glyph-name="one" unicode="2" horiz-adv-x="773" 
d="M50 2l356.998 446l35 46c12.667 16.667 24 33 34 49c12 18 21.667 35.667 29 53c7.33301 18 11 36.333 11 55c0 18 -3.66699 35.333 -11 52s-17.333 31.334 -30 44.001c-11.333 12 -25.666 21.667 -42.999 29c-16.667 7.33301 -34 11 -52 11
c-49.333 0 -86.333 -14.667 -111 -44c-23.333 -28 -36.666 -64.333 -39.999 -109h-3l-102 161c12 21.333 25.667 40 41 56c24.667 28 54.667 50 90 66c36.667 16.667 77.667 25 123 25c41.333 0 79.333 -7.66699 114 -23c34.667 -16.667 64.667 -37.667 90 -63
c25.333 -28 45.333 -59.333 60 -94s22 -72 22 -112c0 -35.333 -5 -67.333 -15 -96c-12 -30.667 -25.667 -59.334 -41 -86.001c-16 -28.667 -34 -55.667 -54 -81l-61 -76l-124 -154h266l83 -144v-13z" />
    <glyph glyph-name="two" unicode="3" horiz-adv-x="743" 
d="M654 280c0 -38.667 -7.33691 -76.001 -22.0039 -112.001c-14.667 -37.333 -34.334 -68.666 -59.001 -93.999c-25.333 -26.667 -55.333 -48.334 -90 -65.001c-35.333 -17.333 -72.666 -26 -111.999 -26c-83.333 0 -148 19.333 -194 58l81 142
c4.66699 -5.33301 9.66699 -10 15 -14c19.333 -18.667 52 -28 98 -28c18.667 0 36.667 3.33301 54 10c16.667 7.33301 31.334 17 44.001 29c11.333 12 20.666 26.667 27.999 44s11 35 11 53c0 18.667 -3.66699 36.334 -11 53.001s-16.666 31.334 -27.999 44.001
c-12.667 12 -27.334 21.667 -44.001 29c-17.333 7.33301 -35.333 11 -54 11h-98l4 126h98c4 0 8.16699 1.66699 12.5 5s8.5 6.83301 12.5 10.5s7 6.5 9 8.5s7.16699 7.66699 15.5 17s14.166 18.333 17.499 27c8 10 14.333 22.333 19 37c5.33301 12.667 8 26 8 40
c0 27.333 -9 50.333 -27 69c-18.667 19.333 -41.667 29 -69 29c-19.333 0 -34.666 -2.33301 -45.999 -7c-11.333 -5.33301 -21.666 -12.666 -30.999 -21.999c-8 -9.33301 -14.333 -21 -19 -35l-6.5 -18c-2.33301 -6.66699 -4.16602 -13.667 -5.49902 -21l-134 78
c1.33301 3.33301 2.5 6.66602 3.5 9.99902s2.83301 7 5.5 11c12.667 33.333 29.667 61.666 51 84.999c22 24 48 43 78 57c32 14 67 21 105 21c34.667 0 67.334 -7.33301 98.001 -22c30 -14.667 55.667 -33.334 77 -56.001c22 -23.333 39.333 -50 52 -80
c11.333 -30.667 17 -63 17 -97c0 -31.333 -4.66699 -62.666 -14 -93.999c-9.33301 -33.333 -25.666 -62 -48.999 -86c68.667 -61.333 103 -136.333 103 -225z" />
    <glyph glyph-name="three" unicode="4" horiz-adv-x="790" 
d="M717 312l-39 -149h-63v-130l-121 -33h-30v163h-416l487 769h80v-613h102v-7zM464 581l-153 -262h153v262z" />
    <glyph glyph-name="four" unicode="5" horiz-adv-x="770" 
d="M650 287c0 -44.667 -7.33105 -85.3301 -21.998 -121.997c-14.667 -38 -35.334 -70.667 -62.001 -98c-26 -28 -58 -50 -96 -66c-39.333 -16 -80.666 -24 -123.999 -24c-31.333 0 -60.666 4.66699 -87.999 14c-26.667 9.33301 -51.334 23 -74.001 41
c-22.667 16.667 -43.667 36 -63 58c-19.333 22.667 -37.333 47 -54 73l120 91l14 -20c4.66699 -6.66699 10 -13.667 16 -21c10 -13.333 22 -26 36 -38c14.667 -12 29 -21.333 43 -28c15.333 -7.33301 32.666 -11 51.999 -11c20 0 40 4.66699 60 14
c18.667 8.66699 34.334 20 47.001 34c13.333 15.333 23.666 32 30.999 50c7.33301 20 11 40.333 11 61c0 21.333 -3.66699 41.333 -11 60c-7.33301 19.333 -17.666 36.666 -30.999 51.999c-12.667 13.333 -28.334 24.333 -47.001 33c-20 9.33301 -40 14 -60 14
c-16 0 -32.333 -2.33301 -49 -7l-24.5 -7.5l-23.5 -7.5l-81 67l96 431h365v-158h-247l-42 -198h11c4.66699 0 9.16699 0.333008 13.5 1s8.16602 1.33398 11.499 2.00098c4.66699 1.33301 9.16699 2.16602 13.5 2.49902s8.5 0.5 12.5 0.5c42.667 0 79 -7.33301 109 -22
s55.667 -35.334 77 -62.001c19.333 -25.333 34 -55.333 44 -90s15 -71.334 15 -110.001z" />
    <glyph glyph-name="five" unicode="6" horiz-adv-x="774" 
d="M683 294c0 -43.333 -7.33105 -83.334 -21.998 -120.001c-16 -37.333 -37.333 -70 -64 -98c-26.667 -28.667 -58 -51 -94 -67c-38 -17.333 -78 -26 -120 -26c-44 0 -84 8.66699 -120 26c-36.667 16.667 -68.334 39.334 -95.001 68.001c-25.333 28.667 -46 62 -62 100
c-16 36 -24 75.667 -24 119c0 38 7.66699 75 23 111c7.33301 17.333 15.333 34.5 24 51.5s18 33.5 28 49.5l265 423h181l-201 -323c45.333 -2 84.666 -11.667 117.999 -29c35.333 -18.667 65.333 -42.334 90 -71.001c26 -29.333 45.667 -62 59 -98
c14 -37.333 21 -74.666 21 -111.999zM529.002 289.999c0 20 -3.66602 39.998 -10.999 59.998c-7.33301 18 -18 34.667 -32 50c-12 14 -27.667 25.667 -47 35c-19.333 8.66699 -39 13 -59 13c-22.667 0 -42.667 -4 -60 -12c-18 -9.33301 -33.333 -20.666 -46 -33.999
c-14 -16 -24.667 -33 -32 -51c-7.33301 -19.333 -11 -39.333 -11 -60c0 -20 3.66699 -39.333 11 -58c6.66699 -16.667 17.334 -32.667 32.001 -48c12.667 -13.333 28 -24.666 46 -33.999c17.333 -7.33301 37.666 -11 60.999 -11c21.333 0 41.666 4.33301 60.999 13
c18.667 8.66699 34 19.667 46 33c14 15.333 24.667 32.333 32 51c7.33301 17.333 11 36.333 11 57z" />
    <glyph glyph-name="six" unicode="7" horiz-adv-x="649" 
d="M224 0h-186l393 776h-407v156h661z" />
    <glyph glyph-name="seven" unicode="8" horiz-adv-x="736" 
d="M652 282c0 -38.667 -7.33398 -76.335 -22.001 -113.002c-14.667 -35.333 -35 -66.666 -61 -93.999c-27.333 -27.333 -58.333 -48.666 -93 -63.999c-36 -16 -73.333 -24 -112 -24s-76 8 -112 24c-34.667 15.333 -65 36.666 -91 63.999c-26 28 -46.333 59.333 -61 94
c-14.667 36.667 -22 74.334 -22 113.001c0 44.667 9.33301 87 28 127c18 42 43.667 78.333 77 109c-43.333 51.333 -65 108.666 -65 171.999c0 36 6 68.667 18 98c13.333 30 31.333 56.667 54 80c21.333 22.667 47.333 40.667 78 54c32 14 64.667 21 98 21
c34.667 0 67.334 -7 98.001 -21c30 -13.333 56.667 -31.333 80 -54c23.333 -23.333 41.333 -50 54 -80c13.333 -29.333 20 -62 20 -98c0 -62.667 -22 -119.667 -66 -171c34.667 -31.333 61 -67.666 79 -108.999c18 -40 27 -82.333 27 -127zM494.999 702.999
c0 16 -3.33203 32.334 -9.99902 49.001c-6.66699 16 -15.334 30 -26.001 42c-6 5.33301 -12.333 10.166 -19 14.499s-14 8.83301 -22 13.5c-16 7.33301 -33 11 -51 11c-34.667 0 -64.667 -13 -90 -39c-24.667 -26 -37 -56.333 -37 -91s12 -64.334 36 -89.001
c22.667 -25.333 52 -38 88 -38c36.667 0 67 12.667 91 38c25.333 24.667 38 54.334 38 89.001h2zM501 283c0 18.667 -3.33203 37.333 -9.99902 56c-7.33301 17.333 -17.333 33 -30 47s-27 24.667 -43 32c-17.333 6.66699 -36 10 -56 10
c-20.667 0 -39.334 -3.33301 -56.001 -10c-18 -7.33301 -32.333 -17.666 -43 -30.999c-12.667 -14 -22.667 -29.667 -30 -47c-7.33301 -18.667 -11 -37.334 -11 -56.001c0 -19.333 3.66699 -37.333 11 -54s17.333 -31.334 30 -44.001c11.333 -12 25.666 -21.667 42.999 -29
c16.667 -7.33301 35.334 -11 56.001 -11c20 0 38.667 3.66699 56 11c16.667 7.33301 31 17 43 29c12.667 12.667 22.667 27.334 30 44.001c6.66699 16.667 10 34.667 10 54v-1z" />
    <glyph glyph-name="eight" unicode="9" horiz-adv-x="774" 
d="M690 637c0 -38.667 -7.33398 -75.3311 -22.001 -109.998c-7.33301 -18.667 -15.333 -36.334 -24 -53.001s-18 -33 -28 -49l-265 -423h-181l202 322c-42.667 2.66699 -82 13 -118 31c-35.333 19.333 -65.666 43 -90.999 71c-26 29.333 -45 62 -57 98
c-14 37.333 -21 75 -21 113c0 43.333 7.66699 83 23 119c15.333 37.333 36.666 70.333 63.999 99c26.667 28 58.667 50.333 96 67s77.333 25 120 25c44 0 84 -8.33301 120 -25c36.667 -16.667 68.334 -39.334 95.001 -68.001c26.667 -30 48 -63.333 64 -100
c15.333 -36 23 -76 23 -120v3zM534.999 632.003c0 20.667 -3.66602 40.6689 -10.999 60.002c-7.33301 18 -17.666 35 -30.999 51c-13.333 13.333 -29 24.666 -47 33.999c-20 8.66699 -40 13 -60 13c-22.667 0 -42.334 -4 -59.001 -12c-18.667 -8.66699 -34.667 -20 -48 -34
c-14 -14.667 -24 -31.667 -30 -51c-7.33301 -19.333 -11 -39 -11 -59c0 -20.667 3.66699 -40 11 -58c5.33301 -16.667 15.333 -32.667 30 -48c13.333 -14 29.333 -25.333 48 -34c16.667 -8 36.667 -12 60 -12c21.333 0 41.666 4.33301 60.999 13c18 8.66699 33.667 20 47 34
c14 15.333 24.667 32 32 50c6.66699 17.333 10 36.666 10 57.999z" />
    <glyph glyph-name="nine" unicode=":" horiz-adv-x="367" 
d="M286 92c0 -30 -10.002 -55.334 -30.002 -76.001c-19.333 -20 -44.666 -30 -75.999 -30c-30 0 -55 10 -75 30c-20.667 20.667 -31 46 -31 76c0 14 2.66699 28 8 42c5.33301 12.667 13.333 24 24 34c10 10.667 21.333 18.334 34 23.001c14 6 28 9 42 9
c15.333 0 29 -2.33301 41 -7c12.667 -5.33301 24 -13.333 34 -24c10.667 -10 18.334 -21.333 23.001 -34c6 -14 9 -27.333 9 -40zM282.998 554.999c0 -30 -10 -55.001 -30 -75.001c-20 -20.667 -45.333 -31 -76 -31c-30 0 -55.333 10.333 -76 31c-20.667 20 -31 45 -31 75
c0 14 3 28 9 42c5.33301 12.667 13 24 23 34c10.667 10.667 22 18.334 34 23.001c14 6 28 9 42 9c15.333 0 29.333 -2.33301 42 -7c12.667 -5.33301 24 -13.333 34 -24c10 -10 17.667 -21.333 23 -34c6 -14 9 -27.333 9 -40z" />
    <glyph glyph-name="colon" unicode=";" horiz-adv-x="389" 
d="M297 558c0 -30 -10.0029 -55.334 -30.0029 -76.001c-19.333 -20.667 -44.666 -31 -75.999 -31c-30 0 -55 10.333 -75 31c-20.667 20.667 -31 46 -31 76c0 14 3 27.667 9 41c4.66699 12.667 12.334 24.334 23.001 35.001c10 10 21.333 17.667 34 23c14 5.33301 28 8 42 8
c15.333 0 29 -2.33301 41 -7c12.667 -5.33301 24 -13 34 -23c10.667 -10.667 18.334 -22 23.001 -34c6 -14 9 -27.667 9 -41zM198.997 -218.001h-92v327h169z" />
    <glyph glyph-name="semicolon" unicode="&#x3c;" horiz-adv-x="590" 
d="M82 375v98l425 207v-142l-238 -117l238 -125v-146z" />
    <glyph glyph-name="less" unicode="=" horiz-adv-x="614" 
d="M61 497v151h492v-151h-492zM61 200v151h492v-151h-492z" />
    <glyph glyph-name="equal" unicode="&#x3e;" horiz-adv-x="590" 
d="M82 150v146l238 125l-238 117v142l425 -207v-98z" />
    <glyph glyph-name="greater" unicode="?" horiz-adv-x="610" 
d="M529 653c0 -36.667 -7.66699 -68.3301 -23 -94.9971c-14.667 -26.667 -32 -51 -52 -73l-26.5 -28.5l-24.5 -25.5c-15.333 -15.333 -23 -28.666 -23 -39.999v-119h-143v120c0 31.333 7.66699 58.666 23 81.999c14.667 22 31.667 43 51 63
c19.333 18.667 36.666 37 51.999 55c15.333 17.333 23 36.666 23 57.999s-7.33301 41.333 -22 60c-14.667 17.333 -33 26 -55 26c-15.333 0 -28.666 -3.33301 -39.999 -10c-10.667 -6.66699 -19.334 -15.334 -26.001 -26.001c-6 -10.667 -10.667 -22.334 -14 -35.001
c-3.33301 -10.667 -5 -22.667 -5 -36h-142c0 33.333 4.66699 65.333 14 96c8.66699 29.333 22.334 56 41.001 80c19.333 23.333 42.666 41.666 69.999 54.999s60 20 98 20c32.667 0 62.334 -6 89.001 -18c28 -12 51.667 -28.333 71 -49
c20 -21.333 35.667 -45.666 47 -72.999c10.667 -28 16 -57.667 16 -89zM408 97.0039c0 -16 -2.66602 -30.333 -7.99902 -43c-4.66699 -12.667 -12.334 -24 -23.001 -34c-10 -10.667 -21.333 -18.334 -34 -23.001c-12.667 -5.33301 -26.334 -8 -41.001 -8
c-12.667 0 -26 3 -40 9c-12.667 4.66699 -24 12.334 -34 23.001c-10.667 10 -18.334 21.333 -23.001 34c-5.33301 12.667 -8 26.667 -8 42c0 13.333 3 26.666 9 39.999c4.66699 12.667 12.334 24.334 23.001 35.001c10 10 21.333 17.667 34 23c14 6 28 9 42 9
c15.333 0 29 -2.66699 41 -8c12.667 -5.33301 24.334 -13 35.001 -23c10 -10.667 17.667 -22 23 -34c6 -14 9 -27.667 9 -41z" />
    <glyph glyph-name="A" unicode="A" horiz-adv-x="864" 
d="M686 0l-66 153h-356l-68 -153h-167l330 889h169l326 -889h-168zM437 646l-80 -224l-62 -168h292z" />
    <glyph glyph-name="B" unicode="B" horiz-adv-x="772" 
d="M724 260c0 -36 -7.33203 -69.334 -21.999 -100.001c-13.333 -31.333 -32 -59.333 -56 -84c-24.667 -24.667 -52.334 -43.334 -83.001 -56.001c-32 -14 -65.667 -21 -101 -21h-349l-19 18v850l22 22h283c34.667 0 68 -6.66699 100 -20c32 -14 60 -33 84 -57
c23.333 -24 42 -52 56 -84c14 -31.333 21 -64.666 21 -99.999c0 -27.333 -4.66699 -54.333 -14 -81c-8.66699 -25.333 -21.334 -49.666 -38.001 -72.999c18 -12 33.833 -25.833 47.5 -41.5s25.834 -32.834 36.501 -51.501c21.333 -35.333 32 -75.666 32 -120.999z
M568.001 266.999c-0.666992 8.66699 -1.5 16.833 -2.5 24.5s-3.16699 15.5 -6.5 23.5c-6 14.667 -14 27.667 -24 39c-5.33301 6.66699 -10.833 12.167 -16.5 16.5s-12.167 8.16602 -19.5 11.499c-13.333 6.66699 -27.333 10 -42 10h-217l2 -245h216
c14.667 0 28.667 3.66699 42 11c7.33301 3.33301 13.833 7 19.5 11s11.167 9.33301 16.5 16c10.667 12.667 18.667 25.334 24 38.001c6 14 9 29.333 9 46zM542.001 613.998c0 16 -2.99902 31.667 -8.99902 47c-6.66699 14.667 -16 27.334 -28 38.001
c-6 6 -12.167 11.167 -18.5 15.5s-13.5 8.16602 -21.5 11.499c-15.333 6.66699 -31.666 10 -48.999 10h-173v-238h173c17.333 0 33.666 3.33301 48.999 10c8 3.33301 15.167 7.16602 21.5 11.499s12.5 9.5 18.5 15.5c11.333 10.667 20.666 23 27.999 37
c6.66699 14.667 10 29.334 10 44.001z" />
    <glyph glyph-name="C" unicode="C" horiz-adv-x="756" 
d="M490 141c18.667 0 37.333 1.66406 56 4.99707s37.334 8.66602 56.001 15.999c10.667 4 20.667 8.66699 30 14l39 -147c-11.333 -5.33301 -23 -10.166 -35 -14.499s-24.667 -8.16602 -38 -11.499c-33.333 -8.66699 -69 -13 -107 -13c-63.333 0 -121.333 11.667 -174 35
c-53.333 22.667 -101.333 54.667 -144 96c-20 20.667 -38 42.834 -54 66.501s-30 49.5 -42 77.5c-23.333 52.667 -35 110.667 -35 174c0 64 11.667 122.333 35 175c12 28 26 53.833 42 77.5s34 45.834 54 66.501c42.667 41.333 90.667 73.333 144 96
c52.667 23.333 110.667 35 174 35c38.667 0 74.667 -4.33301 108 -13c23.333 -6 44.666 -13 63.999 -21l-39 -148l-20 10c-18.667 7.33301 -37.334 12.666 -56.001 15.999s-37.667 5 -57 5c-42 0 -80.667 -8 -116 -24c-35.333 -15.333 -67.333 -36.666 -96 -63.999
c-26.667 -27.333 -48 -59.333 -64 -96c-16.667 -35.333 -25 -73.666 -25 -114.999c0 -42.667 8.33301 -81.334 25 -116.001c16 -36.667 37.333 -68.667 64 -96c14 -14 28.833 -26.167 44.5 -36.5s32.834 -19.833 51.501 -28.5c35.333 -16 74 -24 116 -24z" />
    <glyph glyph-name="D" unicode="D" horiz-adv-x="844" 
d="M800 446c0 -60.667 -11.666 -118.667 -34.999 -174c-24 -55.333 -55.667 -102.666 -95 -141.999c-40.667 -41.333 -88 -73.333 -142 -96c-54.667 -22.667 -112.667 -34 -174 -34h-247l-13 13v865l14 13h246c61.333 0 119.333 -11.333 174 -34
c55.333 -23.333 102.666 -55 141.999 -95c41.333 -42 73.333 -89.667 96 -143c23.333 -54.667 35 -112.334 35 -173.001h-1zM649.001 448c0 40 -7.66699 78.334 -23 115.001c-15.333 37.333 -36.333 68.666 -63 93.999c-26.667 26.667 -57.667 47.334 -93 62.001
c-37.333 15.333 -75.666 23 -114.999 23h-109v-590h109c39.333 0 77.666 7.66699 114.999 23s68.333 36.333 93 63c26.667 24.667 47.667 55.667 63 93s23 75.666 23 114.999v2z" />
    <glyph glyph-name="E" unicode="E" horiz-adv-x="669" 
d="M94 0v890h555v-150h-404v-220h214v-150h-214v-220h404v-150h-555z" />
    <glyph glyph-name="F" unicode="F" horiz-adv-x="649" 
d="M217 740v-220h187v-150h-187v-340l-53 -30h-98v890h555v-150h-404z" />
    <glyph glyph-name="G" unicode="G" horiz-adv-x="887" 
d="M823 118c-22 -20.667 -45.002 -38.834 -69.002 -54.501s-49.667 -29.167 -77 -40.5c-54 -22 -111 -33 -171 -33c-63.333 0 -122.333 11.667 -177 35c-54 23.333 -102.333 56 -145 98c-40 40 -72.333 88.333 -97 145c-24 54.667 -36 113.667 -36 177
c0 62.667 12 121.667 36 177c24.667 56.667 57 105 97 145c42.667 42 91 74.667 145 98c54.667 23.333 113.667 35 177 35c60.667 0 118 -11 172 -33c6 -3.33301 12.167 -6.33301 18.5 -9s12.833 -5.66699 19.5 -9l-67 -116l-13 -13l-16 7c-36 14.667 -74 22 -114 22
c-42.667 0 -82 -8.33301 -118 -25c-37.333 -16 -69.666 -37.667 -96.999 -65c-28 -28.667 -49.667 -61 -65 -97c-16 -36 -24 -75 -24 -117c0 -41.333 8 -80.333 24 -117c15.333 -36 37 -68.333 65 -97c28.667 -28 61 -49.667 97 -65c36 -16.667 75.333 -25 118 -25
c31.333 0 63 4.66699 95 14c30.667 8.66699 59.334 23.334 86.001 44.001v169h-168l86 149h221v-393z" />
    <glyph glyph-name="H" unicode="H" horiz-adv-x="814" 
d="M571 0v370h-325v-370h-151v890h151v-370h325v370h151v-890h-151z" />
    <glyph glyph-name="I" unicode="I" horiz-adv-x="348" 
d="M96 0v889l184 1l-1 -888z" />
    <glyph glyph-name="J" unicode="J" horiz-adv-x="516" 
d="M436 218c0 -52 -12.666 -94.335 -37.999 -127.002c-26 -34 -57.333 -59.667 -94 -77c-38 -17.333 -78.333 -26 -121 -26c-22 0 -43.167 2.33301 -63.5 7s-39.833 11.334 -58.5 20.001l-7 2l75 128c0.666992 0 1.16699 -0.166992 1.5 -0.5s1.16602 -0.5 2.49902 -0.5
c14.667 -5.33301 31 -8 49 -8c16 0 31.667 2.66699 47 8c7.33301 2.66699 14.333 6.33398 21 11.001s12.667 10 18 16c10 13.333 15 29 15 47l-4 552h-205l-1 38v81h210h150v-671h3z" />
    <glyph glyph-name="K" unicode="K" horiz-adv-x="790" 
d="M412 449l310 -353l-110 -96h-15l-327 381l4 -332l-5 -41l-169 2v52v803v25l174 -2l-4 -45v-327l327 381h2l143 -73z" />
    <glyph glyph-name="L" unicode="L" 
d="M250 153h402l-41 -153h-515l4 891h149z" />
    <glyph glyph-name="M" unicode="M" horiz-adv-x="1023" 
d="M773 0v529l-213 -312h-72l-206 316l2 -533h-192l-2 889l145 -3l289 -432l265 435l163 -3l3 -886h-182z" />
    <glyph glyph-name="N" unicode="N" horiz-adv-x="920" 
d="M820 55l-76 -60l-478 555l1 -564l-157 5l-1 836l99 62l459 -554v559h151z" />
    <glyph glyph-name="O" unicode="O" horiz-adv-x="1027" 
d="M969 443c0 -32 -2.83301 -62.5 -8.5 -91.5s-14.834 -57.5 -27.501 -85.5c-24 -56 -56.333 -104.333 -97 -145c-41.333 -41.333 -89.666 -74 -144.999 -98s-114.333 -36 -177 -36c-63.333 0 -122.333 12 -177 36c-56.667 24 -105 56.667 -145 98
c-41.333 40 -74 88.333 -98 145c-24 54.667 -36 113.667 -36 177c0 62.667 12 121.667 36 177s56.667 103.666 98 144.999c40.667 40.667 89 73 145 97c28 12.667 56.5 21.834 85.5 27.501s59.5 8.5 91.5 8.5s62.5 -2.83301 91.5 -8.5s57.5 -14.834 85.5 -27.501
c55.333 -24 103.666 -56.333 144.999 -97c40.667 -41.333 73 -89.666 97 -144.999c12.667 -28 21.834 -56.5 27.501 -85.5s8.5 -59.5 8.5 -91.5zM817 443c0 40.667 -8 79.667 -24 117c-15.333 36 -37 68.333 -65 97c-28.667 28 -61 49.667 -97 65
c-37.333 16 -76.333 24 -117 24c-42 0 -81.333 -8 -118 -24c-37.333 -16.667 -69.333 -38.334 -96 -65.001c-28 -28 -50 -60.333 -66 -97c-16 -37.333 -24 -76.333 -24 -117c0 -42 8 -81.333 24 -118c8 -18 17.5 -35.167 28.5 -51.5s23.5 -31.166 37.5 -44.499
c13.333 -14 28.166 -26.5 44.499 -37.5s33.5 -20.5 51.5 -28.5c36.667 -16 76 -24 118 -24c40.667 0 79.667 8 117 24c36.667 16 69 38 97 66c26.667 26.667 48.334 58.667 65.001 96c16 36.667 24 76 24 118z" />
    <glyph glyph-name="P" unicode="P" horiz-adv-x="710" 
d="M686 727c13.333 -31.333 20.333 -63.9971 21 -97.9971c0 -36 -7 -69.333 -21 -100c-13.333 -31.333 -32 -59 -56 -83c-22.667 -22.667 -50.334 -41.334 -83.001 -56.001c-31.333 -14 -64.666 -21 -99.999 -21h-199l2 -351l-154 -39l3 908h348
c35.333 0 68.666 -7 99.999 -21c32.667 -14.667 60.334 -33.334 83.001 -56.001c12 -12.667 22.667 -25.834 32 -39.501s17.333 -28.167 24 -43.5zM556 627.003c0 15.333 -2.66699 29.333 -8 42c-5.33301 14 -13.333 26 -24 36c-10 10 -21.667 18 -35 24
c-14 6 -28.333 9 -43 9h-199v-218h199c14.667 0 29 3 43 9c13.333 6 25 14 35 24c10.667 10 18.667 21.667 24 35c6.66699 13.333 10 27 10 41z" />
    <glyph glyph-name="Q" unicode="Q" horiz-adv-x="1038" 
d="M969 443c0 -32 -2.83301 -62.5 -8.5 -91.5s-14.834 -57.5 -27.501 -85.5c-24 -56 -56.333 -104.333 -97 -145c-41.333 -41.333 -89.666 -74 -144.999 -98s-114.333 -36 -177 -36c-63.333 0 -122.333 12 -177 36c-56.667 24 -105 56.667 -145 98
c-41.333 40 -74 88.333 -98 145c-24 54.667 -36 113.667 -36 177c0 62.667 12 121.667 36 177s56.667 103.666 98 144.999c40.667 40.667 89 73 145 97c28 12.667 56.5 21.834 85.5 27.501s59.5 8.5 91.5 8.5s62.5 -2.83301 91.5 -8.5s57.5 -14.834 85.5 -27.501
c55.333 -24 103.666 -56.333 144.999 -97c40.667 -41.333 73 -89.666 97 -144.999c12.667 -28 21.834 -56.5 27.501 -85.5s8.5 -59.5 8.5 -91.5zM817 443c0 40.667 -8 79.667 -24 117c-15.333 36 -37 68.333 -65 97c-28.667 28 -61 49.667 -97 65
c-37.333 16 -76.333 24 -117 24c-42 0 -81.333 -8 -118 -24c-37.333 -16.667 -69.333 -38.334 -96 -65.001c-28 -28 -50 -60.333 -66 -97c-16 -37.333 -24 -76.333 -24 -117c0 -42 8 -81.333 24 -118c8 -18 17.5 -35.167 28.5 -51.5s23.5 -31.166 37.5 -44.499
c13.333 -14 28.166 -26.5 44.499 -37.5s33.5 -20.5 51.5 -28.5c36.667 -16 76 -24 118 -24c40.667 0 79.667 8 117 24c36.667 16 69 38 97 66c26.667 26.667 48.334 58.667 65.001 96c16 36.667 24 76 24 118zM600 305l90 91l278 -305l-90 -91z" />
    <glyph glyph-name="R" unicode="R" horiz-adv-x="776" 
d="M245 317c-0.666992 -30.667 -0.831055 -58.667 -0.498047 -84l1 -74.5l1 -74.5c0.333008 -25.333 0.5 -53.333 0.5 -84h-150v885h349c37.333 0 70.666 -6.66699 99.999 -20c15.333 -7.33301 30 -15.5 44 -24.5s27 -19.833 39 -32.5c23.333 -23.333 42 -50.666 56 -81.999
s21 -63.333 21 -96c0 -10.667 -0.833008 -23.334 -2.5 -38.001s-4.33398 -29.667 -8.00098 -45s-8.16699 -30 -13.5 -44s-11.666 -25.667 -18.999 -35c-24.667 -31.333 -54.667 -56.666 -90 -75.999s-68 -34.666 -98 -45.999c24.667 -46.667 59.167 -101.334 103.5 -164.001
l134.5 -182h-173c-22.667 29.333 -42.667 57 -60 83l-50.5 77l-50.5 77c-17.333 26 -37.333 54 -60 84c0 -0.666992 -13.833 -1.83398 -41.5 -3.50098s-34.834 -3 -21.501 -4s15.833 -1.5 7.5 -1.5s-14.5 1.66699 -18.5 5zM554.003 623c0 16 -2.66699 30.333 -8 43
s-13.333 24.334 -24 35.001c-11.333 11.333 -23.333 19.666 -36 24.999c-7.33301 2.66699 -14.333 4.83398 -21 6.50098s-13.667 2.5 -21 2.5h-199l2 -237h199c14.667 0 28.667 3 42 9c14 6 26 14 36 24c10.667 12 18.667 23.667 24 35c3.33301 6 5.33301 15.667 6 29
s1 23.666 1 30.999z" />
    <glyph glyph-name="S" unicode="S" horiz-adv-x="597" 
d="M551 239c0 -40 -8.00098 -76 -24.001 -108s-37.667 -58.667 -65 -80c-24.667 -20.667 -55.667 -37.334 -93 -50.001c-36 -11.333 -72.667 -17 -110 -17c-56 0 -105.333 13.667 -148 41l73 128c6.66699 -4 13 -7.5 19 -10.5s12.667 -5.16699 20 -6.5c14 -4 28 -6 42 -6
c4 0 8 0.166992 12 0.5s8 0.833008 12 1.5c21.333 4 40.666 11 57.999 21c18 10 32 23 42 39c10.667 17.333 16 34.666 16 51.999c0 22.667 -8.66699 42.667 -26 60c-16.667 15.333 -38.667 30.666 -66 45.999l-41.5 22l-44.5 22c-30 14.667 -59 33.334 -87 56.001
c-25.333 20.667 -47 46.667 -65 78c-8.66699 15.333 -15.334 32.333 -20.001 51s-7 39.334 -7 62.001c0 32.667 6.66699 65 20 97c6.66699 15.333 14.334 30 23.001 44s18.667 27 30 39c24 24.667 50.333 43.334 79 56.001c30 14 62.333 21 97 21
c54 0 102.333 -13.667 145 -41c5.33301 -3.33301 10.333 -7 15 -11s9.66699 -8 15 -12l-77 -133c-12 18.667 -28 32.667 -48 42c-15.333 7.33301 -31.666 11 -48.999 11c-8 0 -16 -1 -24 -3c-25.333 -6 -46 -18.667 -62 -38c-18 -21.333 -27 -45.333 -27 -72
c0 -22.667 9.33301 -42.334 28 -59.001c18 -16 41 -31 69 -45l43 -22c14.667 -7.33301 30.334 -14.666 47.001 -21.999c16 -7.33301 31.5 -15.5 46.5 -24.5s29.167 -19.167 42.5 -30.5c28.667 -22 51.667 -48.333 69 -79c18.667 -30.667 28 -68.667 28 -114z" />
    <glyph glyph-name="T" unicode="T" horiz-adv-x="796" 
d="M72 894h669l26 -151h-273v-743h-186v743h-282v9z" />
    <glyph glyph-name="U" unicode="U" horiz-adv-x="869" 
d="M793 339c0 -50 -9.33594 -96.001 -28.0029 -138.001c-14 -32.667 -32 -62.667 -54 -90c-23.333 -26.667 -49 -49.667 -77 -69c-27.333 -18 -57.666 -32.333 -90.999 -43c-18 -5.33301 -35.667 -9.16602 -53 -11.499s-35 -3.5 -53 -3.5
c-49.333 0 -95.666 9.33301 -138.999 28c-43.333 19.333 -80.666 44.666 -111.999 75.999c-32 31.333 -57.333 69 -76 113c-18.667 42.667 -28 89 -28 139l5 548l146 1l1 -549c0 -14 1.33301 -27.333 4 -40s6.66699 -25.667 12 -39c5.33301 -12 11.833 -23.333 19.5 -34
s16.167 -20.667 25.5 -30c17.333 -18 39 -32.333 65 -43c13.333 -5.33301 26.5 -9.16602 39.5 -11.499s26.833 -3.5 41.5 -3.5c29.333 0 55.666 5.33301 78.999 16c24.667 10 46.334 24.667 65.001 44c20 20 35 42 45 66c11.333 26 17 52.667 17 80l-1 540l158 -1l-6 -539z
" />
    <glyph glyph-name="V" unicode="V" horiz-adv-x="853" 
d="M463 6l-110 1l-326 878h163l220 -614l258 614h164z" />
    <glyph glyph-name="W" unicode="W" horiz-adv-x="1232" 
d="M830 3l-98 -1l-119 349l-153 -351l-81 1l-337 884h194l208 -547l86 197h166l85 -197l228 552l184 -7z" />
    <glyph glyph-name="X" unicode="X" horiz-adv-x="838" 
d="M623 0l-184 297l-183 -297h-183l275 444l-275 443h183l183 -296l184 296h181l-273 -443l273 -444h-181z" />
    <glyph glyph-name="Y" unicode="Y" horiz-adv-x="818" 
d="M505 325l-1 -325h-171l-2 323l-309 566h199l205 -371l191 371h198z" />
    <glyph glyph-name="Z" unicode="Z" horiz-adv-x="795" 
d="M98 889h661v-145l-437 -593h437v-151h-661v143l440 595h-440v151z" />
    <glyph glyph-name="a" unicode="a" horiz-adv-x="864" 
d="M686 0l-66 153h-356l-68 -153h-167l330 889h169l326 -889h-168zM437 646l-80 -224l-62 -168h292z" />
    <glyph glyph-name="b" unicode="b" horiz-adv-x="772" 
d="M724 260c0 -36 -7.33203 -69.334 -21.999 -100.001c-13.333 -31.333 -32 -59.333 -56 -84c-24.667 -24.667 -52.334 -43.334 -83.001 -56.001c-32 -14 -65.667 -21 -101 -21h-349l-19 18v850l22 22h283c34.667 0 68 -6.66699 100 -20c32 -14 60 -33 84 -57
c23.333 -24 42 -52 56 -84c14 -31.333 21 -64.666 21 -99.999c0 -27.333 -4.66699 -54.333 -14 -81c-8.66699 -25.333 -21.334 -49.666 -38.001 -72.999c18 -12 33.833 -25.833 47.5 -41.5s25.834 -32.834 36.501 -51.501c21.333 -35.333 32 -75.666 32 -120.999z
M568.001 266.999c-0.666992 8.66699 -1.5 16.833 -2.5 24.5s-3.16699 15.5 -6.5 23.5c-6 14.667 -14 27.667 -24 39c-5.33301 6.66699 -10.833 12.167 -16.5 16.5s-12.167 8.16602 -19.5 11.499c-13.333 6.66699 -27.333 10 -42 10h-217l2 -245h216
c14.667 0 28.667 3.66699 42 11c7.33301 3.33301 13.833 7 19.5 11s11.167 9.33301 16.5 16c10.667 12.667 18.667 25.334 24 38.001c6 14 9 29.333 9 46zM542.001 613.998c0 16 -2.99902 31.667 -8.99902 47c-6.66699 14.667 -16 27.334 -28 38.001
c-6 6 -12.167 11.167 -18.5 15.5s-13.5 8.16602 -21.5 11.499c-15.333 6.66699 -31.666 10 -48.999 10h-173v-238h173c17.333 0 33.666 3.33301 48.999 10c8 3.33301 15.167 7.16602 21.5 11.499s12.5 9.5 18.5 15.5c11.333 10.667 20.666 23 27.999 37
c6.66699 14.667 10 29.334 10 44.001z" />
    <glyph glyph-name="c" unicode="c" horiz-adv-x="756" 
d="M490 141c18.667 0 37.333 1.66406 56 4.99707s37.334 8.66602 56.001 15.999c10.667 4 20.667 8.66699 30 14l39 -147c-11.333 -5.33301 -23 -10.166 -35 -14.499s-24.667 -8.16602 -38 -11.499c-33.333 -8.66699 -69 -13 -107 -13c-63.333 0 -121.333 11.667 -174 35
c-53.333 22.667 -101.333 54.667 -144 96c-20 20.667 -38 42.834 -54 66.501s-30 49.5 -42 77.5c-23.333 52.667 -35 110.667 -35 174c0 64 11.667 122.333 35 175c12 28 26 53.833 42 77.5s34 45.834 54 66.501c42.667 41.333 90.667 73.333 144 96
c52.667 23.333 110.667 35 174 35c38.667 0 74.667 -4.33301 108 -13c23.333 -6 44.666 -13 63.999 -21l-39 -148l-20 10c-18.667 7.33301 -37.334 12.666 -56.001 15.999s-37.667 5 -57 5c-42 0 -80.667 -8 -116 -24c-35.333 -15.333 -67.333 -36.666 -96 -63.999
c-26.667 -27.333 -48 -59.333 -64 -96c-16.667 -35.333 -25 -73.666 -25 -114.999c0 -42.667 8.33301 -81.334 25 -116.001c16 -36.667 37.333 -68.667 64 -96c14 -14 28.833 -26.167 44.5 -36.5s32.834 -19.833 51.501 -28.5c35.333 -16 74 -24 116 -24z" />
    <glyph glyph-name="d" unicode="d" horiz-adv-x="844" 
d="M800 446c0 -60.667 -11.666 -118.667 -34.999 -174c-24 -55.333 -55.667 -102.666 -95 -141.999c-40.667 -41.333 -88 -73.333 -142 -96c-54.667 -22.667 -112.667 -34 -174 -34h-247l-13 13v865l14 13h246c61.333 0 119.333 -11.333 174 -34
c55.333 -23.333 102.666 -55 141.999 -95c41.333 -42 73.333 -89.667 96 -143c23.333 -54.667 35 -112.334 35 -173.001h-1zM649.001 448c0 40 -7.66699 78.334 -23 115.001c-15.333 37.333 -36.333 68.666 -63 93.999c-26.667 26.667 -57.667 47.334 -93 62.001
c-37.333 15.333 -75.666 23 -114.999 23h-109v-590h109c39.333 0 77.666 7.66699 114.999 23s68.333 36.333 93 63c26.667 24.667 47.667 55.667 63 93s23 75.666 23 114.999v2z" />
    <glyph glyph-name="e" unicode="e" horiz-adv-x="669" 
d="M94 0v890h555v-150h-404v-220h214v-150h-214v-220h404v-150h-555z" />
    <glyph glyph-name="f" unicode="f" horiz-adv-x="649" 
d="M217 740v-220h187v-150h-187v-340l-53 -30h-98v890h555v-150h-404z" />
    <glyph glyph-name="g" unicode="g" horiz-adv-x="887" 
d="M823 118c-22 -20.667 -45.002 -38.834 -69.002 -54.501s-49.667 -29.167 -77 -40.5c-54 -22 -111 -33 -171 -33c-63.333 0 -122.333 11.667 -177 35c-54 23.333 -102.333 56 -145 98c-40 40 -72.333 88.333 -97 145c-24 54.667 -36 113.667 -36 177
c0 62.667 12 121.667 36 177c24.667 56.667 57 105 97 145c42.667 42 91 74.667 145 98c54.667 23.333 113.667 35 177 35c60.667 0 118 -11 172 -33c6 -3.33301 12.167 -6.33301 18.5 -9s12.833 -5.66699 19.5 -9l-67 -116l-13 -13l-16 7c-36 14.667 -74 22 -114 22
c-42.667 0 -82 -8.33301 -118 -25c-37.333 -16 -69.666 -37.667 -96.999 -65c-28 -28.667 -49.667 -61 -65 -97c-16 -36 -24 -75 -24 -117c0 -41.333 8 -80.333 24 -117c15.333 -36 37 -68.333 65 -97c28.667 -28 61 -49.667 97 -65c36 -16.667 75.333 -25 118 -25
c31.333 0 63 4.66699 95 14c30.667 8.66699 59.334 23.334 86.001 44.001v169h-168l86 149h221v-393z" />
    <glyph glyph-name="h" unicode="h" horiz-adv-x="814" 
d="M571 0v370h-325v-370h-151v890h151v-370h325v370h151v-890h-151z" />
    <glyph glyph-name="i" unicode="i" horiz-adv-x="348" 
d="M96 0v889l184 1l-1 -888z" />
    <glyph glyph-name="j" unicode="j" horiz-adv-x="516" 
d="M436 218c0 -52 -12.666 -94.335 -37.999 -127.002c-26 -34 -57.333 -59.667 -94 -77c-38 -17.333 -78.333 -26 -121 -26c-22 0 -43.167 2.33301 -63.5 7s-39.833 11.334 -58.5 20.001l-7 2l75 128c0.666992 0 1.16699 -0.166992 1.5 -0.5s1.16602 -0.5 2.49902 -0.5
c14.667 -5.33301 31 -8 49 -8c16 0 31.667 2.66699 47 8c7.33301 2.66699 14.333 6.33398 21 11.001s12.667 10 18 16c10 13.333 15 29 15 47l-4 552h-205l-1 38v81h210h150v-671h3z" />
    <glyph glyph-name="k" unicode="k" horiz-adv-x="790" 
d="M412 449l310 -353l-110 -96h-15l-327 381l4 -332l-5 -41l-169 2v52v803v25l174 -2l-4 -45v-327l327 381h2l143 -73z" />
    <glyph glyph-name="l" unicode="l" 
d="M250 153h402l-41 -153h-515l4 891h149z" />
    <glyph glyph-name="m" unicode="m" horiz-adv-x="1023" 
d="M773 0v529l-213 -312h-72l-206 316l2 -533h-192l-2 889l145 -3l289 -432l265 435l163 -3l3 -886h-182z" />
    <glyph glyph-name="n" unicode="n" horiz-adv-x="920" 
d="M820 55l-76 -60l-478 555l1 -564l-157 5l-1 836l99 62l459 -554v559h151z" />
    <glyph glyph-name="o" unicode="o" horiz-adv-x="1027" 
d="M969 443c0 -32 -2.83301 -62.5 -8.5 -91.5s-14.834 -57.5 -27.501 -85.5c-24 -56 -56.333 -104.333 -97 -145c-41.333 -41.333 -89.666 -74 -144.999 -98s-114.333 -36 -177 -36c-63.333 0 -122.333 12 -177 36c-56.667 24 -105 56.667 -145 98
c-41.333 40 -74 88.333 -98 145c-24 54.667 -36 113.667 -36 177c0 62.667 12 121.667 36 177s56.667 103.666 98 144.999c40.667 40.667 89 73 145 97c28 12.667 56.5 21.834 85.5 27.501s59.5 8.5 91.5 8.5s62.5 -2.83301 91.5 -8.5s57.5 -14.834 85.5 -27.501
c55.333 -24 103.666 -56.333 144.999 -97c40.667 -41.333 73 -89.666 97 -144.999c12.667 -28 21.834 -56.5 27.501 -85.5s8.5 -59.5 8.5 -91.5zM817 443c0 40.667 -8 79.667 -24 117c-15.333 36 -37 68.333 -65 97c-28.667 28 -61 49.667 -97 65
c-37.333 16 -76.333 24 -117 24c-42 0 -81.333 -8 -118 -24c-37.333 -16.667 -69.333 -38.334 -96 -65.001c-28 -28 -50 -60.333 -66 -97c-16 -37.333 -24 -76.333 -24 -117c0 -42 8 -81.333 24 -118c8 -18 17.5 -35.167 28.5 -51.5s23.5 -31.166 37.5 -44.499
c13.333 -14 28.166 -26.5 44.499 -37.5s33.5 -20.5 51.5 -28.5c36.667 -16 76 -24 118 -24c40.667 0 79.667 8 117 24c36.667 16 69 38 97 66c26.667 26.667 48.334 58.667 65.001 96c16 36.667 24 76 24 118z" />
    <glyph glyph-name="p" unicode="p" horiz-adv-x="710" 
d="M686 727c13.333 -31.333 20.333 -63.9971 21 -97.9971c0 -36 -7 -69.333 -21 -100c-13.333 -31.333 -32 -59 -56 -83c-22.667 -22.667 -50.334 -41.334 -83.001 -56.001c-31.333 -14 -64.666 -21 -99.999 -21h-199l2 -351l-154 -39l3 908h348
c35.333 0 68.666 -7 99.999 -21c32.667 -14.667 60.334 -33.334 83.001 -56.001c12 -12.667 22.667 -25.834 32 -39.501s17.333 -28.167 24 -43.5zM556 627.003c0 15.333 -2.66699 29.333 -8 42c-5.33301 14 -13.333 26 -24 36c-10 10 -21.667 18 -35 24
c-14 6 -28.333 9 -43 9h-199v-218h199c14.667 0 29 3 43 9c13.333 6 25 14 35 24c10.667 10 18.667 21.667 24 35c6.66699 13.333 10 27 10 41z" />
    <glyph glyph-name="q" unicode="q" horiz-adv-x="1038" 
d="M969 443c0 -32 -2.83301 -62.5 -8.5 -91.5s-14.834 -57.5 -27.501 -85.5c-24 -56 -56.333 -104.333 -97 -145c-41.333 -41.333 -89.666 -74 -144.999 -98s-114.333 -36 -177 -36c-63.333 0 -122.333 12 -177 36c-56.667 24 -105 56.667 -145 98
c-41.333 40 -74 88.333 -98 145c-24 54.667 -36 113.667 -36 177c0 62.667 12 121.667 36 177s56.667 103.666 98 144.999c40.667 40.667 89 73 145 97c28 12.667 56.5 21.834 85.5 27.501s59.5 8.5 91.5 8.5s62.5 -2.83301 91.5 -8.5s57.5 -14.834 85.5 -27.501
c55.333 -24 103.666 -56.333 144.999 -97c40.667 -41.333 73 -89.666 97 -144.999c12.667 -28 21.834 -56.5 27.501 -85.5s8.5 -59.5 8.5 -91.5zM817 443c0 40.667 -8 79.667 -24 117c-15.333 36 -37 68.333 -65 97c-28.667 28 -61 49.667 -97 65
c-37.333 16 -76.333 24 -117 24c-42 0 -81.333 -8 -118 -24c-37.333 -16.667 -69.333 -38.334 -96 -65.001c-28 -28 -50 -60.333 -66 -97c-16 -37.333 -24 -76.333 -24 -117c0 -42 8 -81.333 24 -118c8 -18 17.5 -35.167 28.5 -51.5s23.5 -31.166 37.5 -44.499
c13.333 -14 28.166 -26.5 44.499 -37.5s33.5 -20.5 51.5 -28.5c36.667 -16 76 -24 118 -24c40.667 0 79.667 8 117 24c36.667 16 69 38 97 66c26.667 26.667 48.334 58.667 65.001 96c16 36.667 24 76 24 118zM600 305l90 91l278 -305l-90 -91z" />
    <glyph glyph-name="r" unicode="r" horiz-adv-x="776" 
d="M245 317c-0.666992 -30.667 -0.831055 -58.667 -0.498047 -84l1 -74.5l1 -74.5c0.333008 -25.333 0.5 -53.333 0.5 -84h-150v885h349c37.333 0 70.666 -6.66699 99.999 -20c15.333 -7.33301 30 -15.5 44 -24.5s27 -19.833 39 -32.5c23.333 -23.333 42 -50.666 56 -81.999
s21 -63.333 21 -96c0 -10.667 -0.833008 -23.334 -2.5 -38.001s-4.33398 -29.667 -8.00098 -45s-8.16699 -30 -13.5 -44s-11.666 -25.667 -18.999 -35c-24.667 -31.333 -54.667 -56.666 -90 -75.999s-68 -34.666 -98 -45.999c24.667 -46.667 59.167 -101.334 103.5 -164.001
l134.5 -182h-173c-22.667 29.333 -42.667 57 -60 83l-50.5 77l-50.5 77c-17.333 26 -37.333 54 -60 84c0 -0.666992 -13.833 -1.83398 -41.5 -3.50098s-34.834 -3 -21.501 -4s15.833 -1.5 7.5 -1.5s-14.5 1.66699 -18.5 5zM554.003 623c0 16 -2.66699 30.333 -8 43
s-13.333 24.334 -24 35.001c-11.333 11.333 -23.333 19.666 -36 24.999c-7.33301 2.66699 -14.333 4.83398 -21 6.50098s-13.667 2.5 -21 2.5h-199l2 -237h199c14.667 0 28.667 3 42 9c14 6 26 14 36 24c10.667 12 18.667 23.667 24 35c3.33301 6 5.33301 15.667 6 29
s1 23.666 1 30.999z" />
    <glyph glyph-name="s" unicode="s" horiz-adv-x="597" 
d="M551 239c0 -40 -8.00098 -76 -24.001 -108s-37.667 -58.667 -65 -80c-24.667 -20.667 -55.667 -37.334 -93 -50.001c-36 -11.333 -72.667 -17 -110 -17c-56 0 -105.333 13.667 -148 41l73 128c6.66699 -4 13 -7.5 19 -10.5s12.667 -5.16699 20 -6.5c14 -4 28 -6 42 -6
c4 0 8 0.166992 12 0.5s8 0.833008 12 1.5c21.333 4 40.666 11 57.999 21c18 10 32 23 42 39c10.667 17.333 16 34.666 16 51.999c0 22.667 -8.66699 42.667 -26 60c-16.667 15.333 -38.667 30.666 -66 45.999l-41.5 22l-44.5 22c-30 14.667 -59 33.334 -87 56.001
c-25.333 20.667 -47 46.667 -65 78c-8.66699 15.333 -15.334 32.333 -20.001 51s-7 39.334 -7 62.001c0 32.667 6.66699 65 20 97c6.66699 15.333 14.334 30 23.001 44s18.667 27 30 39c24 24.667 50.333 43.334 79 56.001c30 14 62.333 21 97 21
c54 0 102.333 -13.667 145 -41c5.33301 -3.33301 10.333 -7 15 -11s9.66699 -8 15 -12l-77 -133c-12 18.667 -28 32.667 -48 42c-15.333 7.33301 -31.666 11 -48.999 11c-8 0 -16 -1 -24 -3c-25.333 -6 -46 -18.667 -62 -38c-18 -21.333 -27 -45.333 -27 -72
c0 -22.667 9.33301 -42.334 28 -59.001c18 -16 41 -31 69 -45l43 -22c14.667 -7.33301 30.334 -14.666 47.001 -21.999c16 -7.33301 31.5 -15.5 46.5 -24.5s29.167 -19.167 42.5 -30.5c28.667 -22 51.667 -48.333 69 -79c18.667 -30.667 28 -68.667 28 -114z" />
    <glyph glyph-name="t" unicode="t" horiz-adv-x="796" 
d="M72 894h669l26 -151h-273v-743h-186v743h-282v9z" />
    <glyph glyph-name="u" unicode="u" horiz-adv-x="869" 
d="M793 339c0 -50 -9.33594 -96.001 -28.0029 -138.001c-14 -32.667 -32 -62.667 -54 -90c-23.333 -26.667 -49 -49.667 -77 -69c-27.333 -18 -57.666 -32.333 -90.999 -43c-18 -5.33301 -35.667 -9.16602 -53 -11.499s-35 -3.5 -53 -3.5
c-49.333 0 -95.666 9.33301 -138.999 28c-43.333 19.333 -80.666 44.666 -111.999 75.999c-32 31.333 -57.333 69 -76 113c-18.667 42.667 -28 89 -28 139l5 548l146 1l1 -549c0 -14 1.33301 -27.333 4 -40s6.66699 -25.667 12 -39c5.33301 -12 11.833 -23.333 19.5 -34
s16.167 -20.667 25.5 -30c17.333 -18 39 -32.333 65 -43c13.333 -5.33301 26.5 -9.16602 39.5 -11.499s26.833 -3.5 41.5 -3.5c29.333 0 55.666 5.33301 78.999 16c24.667 10 46.334 24.667 65.001 44c20 20 35 42 45 66c11.333 26 17 52.667 17 80l-1 540l158 -1l-6 -539z
" />
    <glyph glyph-name="v" unicode="v" horiz-adv-x="853" 
d="M463 6l-110 1l-326 878h163l220 -614l258 614h164z" />
    <glyph glyph-name="w" unicode="w" horiz-adv-x="1232" 
d="M830 3l-98 -1l-119 349l-153 -351l-81 1l-337 884h194l208 -547l86 197h166l85 -197l228 552l184 -7z" />
    <glyph glyph-name="x" unicode="x" horiz-adv-x="838" 
d="M623 0l-184 297l-183 -297h-183l275 444l-275 443h183l183 -296l184 296h181l-273 -443l273 -444h-181z" />
    <glyph glyph-name="y" unicode="y" horiz-adv-x="818" 
d="M505 325l-1 -325h-171l-2 323l-309 566h199l205 -371l191 371h198z" />
    <glyph glyph-name="z" unicode="z" horiz-adv-x="795" 
d="M98 889h661v-145l-437 -593h437v-151h-661v143l440 595h-440v151z" />
    <glyph glyph-name="K.001" horiz-adv-x="560" 
d="M278 385l235 -302l-83 -83h-12l-247 327v-290h-130v707h130v-301l247 327h2l109 -63z" />
    <glyph glyph-name="M.001" horiz-adv-x="814" 
d="M619 0v449l-181 -265h-61l-174 268l1 -452h-162l-2 754l123 -3l245 -366l225 369l138 -3l3 -751h-155z" />
    <glyph glyph-name="N.001" horiz-adv-x="670" 
d="M629 74l-57 -41l-403 437v-437h-130v660l81 47l382 -442v442l130 -3zM39 800l9 -10h-9v10z" />
    <glyph glyph-name="j.001" horiz-adv-x="376" 
d="M337 189c0 -45.333 -10.999 -82.333 -32.999 -111c-22 -29.333 -49 -51.333 -81 -66c-31.333 -14.667 -66.333 -22 -105 -22c-37.333 0 -72.333 7.66699 -105 23l-6 2l64 111c0.666992 0 1.16699 -0.166992 1.5 -0.5s1.16602 -0.5 2.49902 -0.5c14 -5.33301 28 -8 42 -8
s28 2.66699 42 8c12.667 4.66699 23.667 12.667 33 24c8.66699 10.667 13 24 13 40v581h130v-581h2z" />
    <glyph glyph-name="m.001" horiz-adv-x="818" 
d="M620 0v449l-181 -265h-61l-174 268l1 -452h-162v800l122 -3l244 -412l231 419l135 -4v-800h-155z" />
    <glyph glyph-name="u.001" horiz-adv-x="791" 
d="M742 332c0 -48.667 -9.3291 -93.668 -27.9961 -135.001c-13.333 -32 -31 -61.333 -53 -88c-22.667 -26.667 -47.667 -49.334 -75 -68.001c-27.333 -18 -57.333 -32 -90 -42c-17.333 -5.33301 -34.5 -9.16602 -51.5 -11.499s-34.5 -3.5 -52.5 -3.5
c-48 0 -93.333 9 -136 27c-42.667 19.333 -79.334 44.333 -110.001 75c-31.333 30.667 -56.333 67.667 -75 111c-18 42 -27 87.333 -27 136v544l149 -39v-505c0 -13.333 1.33301 -26.333 4 -39s6.66699 -25.334 12 -38.001c5.33301 -12 11.666 -23.167 18.999 -33.5
s15.666 -20.166 24.999 -29.499c17.333 -17.333 38.666 -31.333 63.999 -42c12.667 -5.33301 25.5 -9.16602 38.5 -11.499s26.5 -3.5 40.5 -3.5c28.667 0 54.667 5.33301 78 16c24 10 45.333 24.333 64 43c19.333 19.333 34 41 44 65c10.667 25.333 16 51.333 16 78v503
l149 39v-542z" />
    <glyph glyph-name="y.001" horiz-adv-x="634" 
d="M382 367v-367h-130v367l-237 403h151l151 -257l152 257h150z" />
    <glyph glyph-name="m.002" horiz-adv-x="936" 
d="M712 0v516l-208 -304h-70l-201 308l2 -520h-187l-2 867l141 -3l282 -421l259 424l159 -3l3 -864h-178z" />
    <glyph glyph-name="exclam.001" horiz-adv-x="833" 
 />
    <glyph glyph-name="quotedbl.001" horiz-adv-x="333" 
d="M96 247v523h140v-523h-140zM260 84c0 -27.333 -8.99902 -50.334 -26.999 -69.001s-41 -28 -69 -28c-27.333 0 -50.333 9.33301 -69 28s-28 41.667 -28 69c0 12.667 2.66699 25.334 8 38.001c4.66699 11.333 11.667 21.666 21 30.999s19.666 16.333 30.999 21
c12.667 5.33301 25.334 8 38.001 8c14 0 26.667 -2.33301 38 -7s21.666 -11.667 30.999 -21s16.333 -19.666 21 -30.999c5.33301 -12.667 8 -25 8 -37z" />
    <glyph glyph-name="quotedbl.002" horiz-adv-x="483" 
d="M423 423h-133v347h133v-347zM193 423h-133v347h133v-347z" />
    <glyph glyph-name="numbersign.001" horiz-adv-x="736" 
d="M649 433h-101l-25 -180h100l-12 -98h-102l-21 -155h-107l21 155h-121l-21 -155h-107l21 155h-101l14 98h101l25 180h-101l14 98h100l22 155h107l-22 -155h121l22 155h107l-22 -155h101zM320 433l-25 -180h121l25 180h-121z" />
    <glyph glyph-name="dollar.001" horiz-adv-x="599" 
d="M506 305c16 -27.333 23.9971 -59.332 23.9971 -95.999s-7 -69 -21 -97c-13.333 -26.667 -32 -50 -56 -70c-22.667 -18.667 -49.667 -33 -81 -43c-11.333 -4 -23.333 -7 -36 -9v-96h-80v90c-43.333 0.666992 -84.666 16.667 -123.999 48c-40 31.333 -68.667 73 -86 125
l110 49c8.66699 -25.333 21.334 -45.333 38.001 -60s33.667 -24.334 51 -29.001l12 -3v219l-12 6c-27.333 12.667 -52.333 28.667 -75 48c-22.667 18.667 -41.667 41.334 -57 68.001s-23 57.334 -23 92.001c0 34 5.66699 65 17 93c11.333 27.333 26.666 51.333 45.999 72
s42.333 37 69 49c10.667 4.66699 23.334 8.66699 38.001 12v96h80v-91c31.333 -2.66699 62.333 -14.334 93 -35.001c36.667 -24 64.334 -58 83.001 -102l-113 -52c-12.667 26.667 -30 45 -52 55c-2.66699 1.33301 -6.66699 2.66602 -12 3.99902v-204l33 -15
c28 -13.333 54 -29.333 78 -48c24 -19.333 44 -42.333 60 -69zM256.997 635.001c-9.33301 -5.33301 -18 -12.333 -26 -21c-15.333 -17.333 -23 -37.333 -23 -60s8 -41 24 -55c6 -6 14 -12.333 24 -19v154zM336.997 122.001c6.66699 2.66699 11.333 5.00098 14 7.00098
c15.333 9.33301 27.333 20.666 36 33.999c9.33301 14.667 14 30.667 14 48c0 18 -7.66699 34 -23 48c-10 9.33301 -23.667 19.333 -41 30v-167z" />
    <glyph glyph-name="percent.001" horiz-adv-x="839" 
d="M379 620c0 -22 -4 -43 -12 -63s-19 -37 -33 -51s-30.333 -25 -49 -33c-19.333 -8 -39.333 -12 -60 -12c-21.333 0 -41.333 4 -60 12s-35 19 -49 33s-25 31 -33 51s-12 41 -12 63s4 43 12 63s19 37 33 51s30.333 25 49 33s38.667 12 60 12c20.667 0 40.667 -4 60 -12
s36 -19 50 -33s25 -31 33 -51s12 -41 12 -63h-1zM282 620c0 16.667 -5.33301 30.667 -16 42c-11.333 12 -25.333 18 -42 18c-17.333 0 -31.333 -6 -42 -18c-11.333 -12.667 -17 -26.667 -17 -42s5.66699 -29.333 17 -42c10.667 -12 24.667 -18 42 -18
c16.667 0 30.667 6 42 18c11.333 12.667 17 26.667 17 42h-1zM247 -1h-144l483 771h144zM765 150c0 -22 -4 -43 -12 -63s-19 -37 -33 -51s-30.333 -25 -49 -33c-19.333 -8 -39.333 -12 -60 -12c-21.333 0 -41.333 4 -60 12s-35 19 -49 33s-25 31 -33 51s-12 41 -12 63
s4 43 12 63s19 37 33 51s30.667 25 50 33c18.667 8 38.667 12 60 12c20.667 0 40.667 -4 60 -12s36 -19 50 -33s25 -31 33 -51s12 -41 12 -63h-2zM669 150c0 16 -6 30 -18 42s-26 18 -42 18c-17.333 0 -31.333 -6 -42 -18c-11.333 -12.667 -17 -26.667 -17 -42
s5.66699 -29.333 17 -42c10.667 -12 24.667 -18 42 -18c16 0 30 6 42 18s18 26 18 42z" />
    <glyph glyph-name="ampersand.001" horiz-adv-x="756" 
d="M250 370l-27.001 -28c-8 -9.33301 -15 -18.333 -21 -27c-6.66699 -10 -11.334 -20 -14.001 -30c-3.33301 -12 -5 -25 -5 -39c0 -17.333 3.66699 -34.333 11 -51c6.66699 -15.333 16.334 -29.333 29.001 -42s26.667 -22.334 42 -29.001
c16.667 -7.33301 34.334 -11 53.001 -11h14.5c4.33301 0 8.5 0.666992 12.5 2l2 -3l9 6l1 1c10.667 4 20.667 9 30 15c10 6.66699 18.667 13.667 26 21l5 5l-2 1l9 6l-7 -7l3 -2l16 18l6 4l1 3l79 87l6 -4l189 -68l-111 -20l-81 -85l-5 5l-28 -29
c-22 -23.333 -48.667 -41.666 -80 -54.999c-29.333 -12.667 -61.333 -19 -96 -19s-67.334 6.66699 -98.001 20c-29.333 12.667 -55.666 30.667 -78.999 54c-23.333 22.667 -41.333 49.667 -54 81c-12.667 30 -19 63 -19 99c0 35.333 6.33301 68 19 98
c13.333 31.333 31.333 59 54 83l29 30c-24 34.667 -36 73 -36 115c0 24 4.66699 48 14 72c8.66699 22.667 21.667 42.667 39 60c16 16 35.667 29.333 59 40c22 10 45.667 15 71 15c24.667 0 47.667 -4.33301 69 -13c22.667 -9.33301 41.667 -21.666 57 -36.999
c16 -16 29 -34.333 39 -55c5.33301 -10.667 7.33301 -22.334 6 -35.001s-2 -25.334 -2 -38.001c0 -22.667 -7.83301 -42 -23.5 -58s-34.5 -29.167 -56.5 -39.5s-44.667 -18.166 -68 -23.499s-42.333 -9 -57 -11s-23 -2.66699 -25 -2s7.66699 2.33398 29 5.00098l82 76
c4.66699 7.33301 8.66699 16 12 26s5 19 5 27c0 16.667 -6.66699 30.667 -20 42s-28.333 17 -45 17c-18.667 0 -34.667 -6.66699 -48 -20s-20 -29.333 -20 -48c0 -9.33301 0.5 -18.833 1.5 -28.5s4.83301 -17.834 11.5 -24.501l45 -83l-49 -74l-8 8zM238.999 402l69 39
l260 -463l-69 -39z" />
    <glyph glyph-name="quotesingle.001" horiz-adv-x="253" 
d="M193 423h-133v347h133v-347z" />
    <glyph glyph-name="parenleft.001" horiz-adv-x="444" 
d="M374 715c-27.333 -4 -51.666 -13.0059 -72.999 -27.0059c-22 -14.667 -38.667 -32 -50 -52c-12 -21.333 -22 -42.333 -30 -63c-8.66699 -22 -14.334 -45 -17.001 -69c-3.33301 -25.333 -5.33301 -44.666 -6 -57.999c-0.666992 -7.33301 -1.16699 -14.333 -1.5 -21
s-0.5 -13.667 -0.5 -21s0.166992 -14.5 0.5 -21.5s0.833008 -14.167 1.5 -21.5c0.666992 -13.333 2.66699 -32.666 6 -57.999c2.66699 -24 8.33398 -47 17.001 -69c8 -21.333 18 -42.333 30 -63c11.333 -20 28 -37.333 50 -52c21.333 -14 45.666 -23 72.999 -27v-102
c-32.667 2.66699 -64 10.334 -94 23.001c-29.333 12 -54 27 -74 45c-19.333 17.333 -37.333 38 -54 62c-15.333 22.667 -28.333 46.334 -39 71.001c-10 24 -18 49 -24 75s-10 50 -12 72s-3 42.667 -3 62s1 40 3 62s6 46 12 72s14 51 24 75
c10.667 24.667 23.667 48.334 39 71.001c16.667 24 34.667 44.667 54 62c20 18 44.667 33 74 45c30 12.667 61.333 20.334 94 23.001v-102v7z" />
    <glyph glyph-name="parenright.001" horiz-adv-x="444" 
d="M71 803c32.667 -2.66699 64 -10.3281 94 -22.9951c29.333 -12 54 -27 74 -45c19.333 -17.333 37.333 -38 54 -62c15.333 -22.667 28.333 -46.334 39 -71.001c10 -24 18 -49 24 -75s10 -50 12 -72s3 -42.667 3 -62s-1 -40 -3 -62s-6 -46 -12 -72s-14 -51 -24 -75
c-10.667 -24.667 -23.667 -48.334 -39 -71.001c-16.667 -24 -34.667 -44.667 -54 -62c-20 -18 -44.667 -33 -74 -45c-30 -12.667 -61.333 -20.334 -94 -23.001v102c27.333 4 51.666 13 72.999 27c22 14.667 38.667 32 50 52c12 20.667 22 41.667 30 63
c8.66699 22 14.334 45 17.001 69c3.33301 25.333 5.33301 44.666 6 57.999c0.666992 7.33301 1.16699 14.5 1.5 21.5s0.5 14.167 0.5 21.5s-0.166992 14.333 -0.5 21s-0.833008 13.667 -1.5 21c-0.666992 13.333 -2.66699 32.666 -6 57.999
c-2.66699 24 -8.33398 47 -17.001 69c-8 20.667 -18 41.667 -30 63c-11.333 20 -28 37.333 -50 52c-21.333 14 -45.666 23 -72.999 27v95z" />
    <glyph glyph-name="asterisk.001" horiz-adv-x="514" 
d="M294 631l83 -113l-64 -37l-56 127l-56 -127l-64 37l83 113l-140 -14v72l140 -14l-83 113l64 37l56 -127l56 127l64 -37l-83 -113l140 14v-72z" />
    <glyph glyph-name="plus.001" horiz-adv-x="698" 
d="M407 328v-199h-116v199h-213v114h213v200h116v-200h214v-114h-214z" />
    <glyph glyph-name="comma.001" horiz-adv-x="353" 
d="M183 -196h-83v297h153z" />
    <glyph glyph-name="hyphen.001" horiz-adv-x="548" 
d="M70 328v114h408v-114h-408z" />
    <glyph glyph-name="period.001" horiz-adv-x="333" 
d="M260 84c0 -27.333 -8.99902 -50.334 -26.999 -69.001s-41 -28 -69 -28c-27.333 0 -50.333 9.33301 -69 28s-28 41.667 -28 69c0 12.667 2.66699 25.334 8 38.001c4.66699 11.333 11.667 21.666 21 30.999s19.666 16.333 30.999 21c12.667 5.33301 25.334 8 38.001 8
c14 0 26.667 -2.33301 38 -7s21.666 -11.667 30.999 -21s16.333 -19.666 21 -30.999c5.33301 -12.667 8 -25 8 -37z" />
    <glyph glyph-name="slash.001" 
d="M184 -200h-144l415 1000h144z" />
    <glyph glyph-name="zero.001" horiz-adv-x="672" 
d="M669 389c0 -13.333 -0.666992 -26.834 -2 -40.501s-3 -28.167 -5 -43.5c-3.33301 -15.333 -7 -30.333 -11 -45s-8.66699 -29.667 -14 -45s-11.5 -30 -18.5 -44l-21.5 -42c-16.667 -28 -37 -52.333 -61 -73c-24.667 -21.333 -51.334 -38.333 -80.001 -51
c-28 -12.667 -61.667 -19 -101 -19c-38.667 0 -72.667 6.33301 -102 19s-55.666 29.667 -78.999 51c-24 20.667 -44.333 45 -61 73c-8.66699 14 -16.334 28 -23.001 42s-13 28.667 -19 44c-5.33301 15.333 -9.83301 30.333 -13.5 45s-6.83398 29.667 -9.50098 45
s-4.5 29.833 -5.5 43.5s-1.5 27.167 -1.5 40.5s0.5 27 1.5 41s2.83301 28.667 5.5 44s5.83398 30.166 9.50098 44.499s8.16699 28.833 13.5 43.5c6 14 12.333 27.833 19 41.5s14.334 27.167 23.001 40.5c17.333 26.667 37.666 49.667 60.999 69
c22.667 20 49.334 36 80.001 48c30 12 64 18 102 18c37.333 0 71 -6 101 -18c31.333 -12 58.666 -28 81.999 -48c23.333 -19.333 43.666 -42.333 60.999 -69c8.66699 -13.333 16.334 -26.666 23.001 -39.999s13 -27 19 -41c5.33301 -14.667 9.83301 -29.167 13.5 -43.5
s6.83398 -29.166 9.50098 -44.499s4.5 -30 5.5 -44s1.5 -27.667 1.5 -41zM502 384.999c0 10 -0.333984 21.002 -1.00098 33.002s-1.66699 25.333 -3 40c-2 14.667 -4.66699 29 -8 43s-8 27.667 -14 41c-5.33301 13.333 -11.833 25.666 -19.5 36.999
s-16.5 21.666 -26.5 30.999c-20.667 19.333 -47.667 29 -81 29c-35.333 0 -62.666 -9.33301 -81.999 -28c-10 -9.33301 -18.833 -19.333 -26.5 -30s-14.167 -22.667 -19.5 -36s-9.83301 -26.666 -13.5 -39.999s-6.16699 -27.333 -7.5 -42c-2 -14.667 -3.33301 -28 -4 -40
s-1 -22.667 -1 -32c0 -6.66699 0.166992 -13.667 0.5 -21s0.833008 -15.666 1.5 -24.999s1.66699 -18.666 3 -27.999l4 -29c2 -10 4.5 -19.833 7.5 -29.5s6.16699 -19.167 9.5 -28.5c6.66699 -18 16 -34.667 28 -50c12 -14.667 26.333 -27 43 -37s37 -15 61 -15
c22 0 41.333 4.66699 58 14c18 9.33301 32.333 21.333 43 36c6 7.33301 11.333 15.166 16 23.499s9 17.166 13 26.499c3.33301 9.33301 6.33301 18.833 9 28.5s5 19.167 7 28.5l4 28l4 28c0.666992 9.33301 1.16699 17.666 1.5 24.999s0.5 14.333 0.5 21z" />
    <glyph glyph-name="one.001" horiz-adv-x="334" 
d="M103 0v641h-83v15l196 114h18v-770h-131z" />
    <glyph glyph-name="two.001" 
d="M41 2l294.998 367.999l29 38c10.667 14 20.334 27.667 29.001 41c9.33301 14.667 17 29.334 23 44.001s9 29.667 9 45c0 14.667 -3 29 -9 43s-14 26 -24 36s-22 18 -36 24s-28.333 9 -43 9c-40.667 0 -71 -12 -91 -36c-19.333 -23.333 -30.666 -53.333 -33.999 -90h-3
l-83 133c9.33301 18 20.333 33.667 33 47c20.667 22.667 45.667 40.667 75 54c30 13.333 64 20 102 20c34 0 65 -6.33301 93 -19c29.333 -13.333 54.333 -30.666 75 -51.999c21.333 -22.667 38 -48.334 50 -77.001c12 -29.333 18 -60.333 18 -93
c0 -28.667 -4.33301 -55 -13 -79c-9.33301 -25.333 -20.333 -49.333 -33 -72c-13.333 -23.333 -28.333 -45.333 -45 -66l-51 -63l-102 -127h220l69 -119v-11z" />
    <glyph glyph-name="three.001" horiz-adv-x="614" 
d="M541 232c0 -32 -6 -63.001 -18 -93.001c-12 -30.667 -28.333 -56.667 -49 -78c-21.333 -22 -46.333 -40 -75 -54c-29.333 -14 -60.333 -21 -93 -21c-68 0 -121.333 16 -160 48l68 117c3.33301 -4 7 -7.66699 11 -11c16.667 -16 43.667 -24 81 -24c16 0 31 3 45 9
s26 14 36 24s18 22 24 36s9 28.667 9 44s-3 30 -9 44s-14 26 -24 36s-22 18 -36 24s-29 9 -45 9h-81l4 104h81c3.33301 0 6.33301 1.5 9 4.5s5.16699 6.5 7.5 10.5s4.5 8 6.5 12s4.33301 6.66699 7 8c10 6 18.333 13.333 25 22c6.66699 8 12 18 16 30
c4 10.667 6 21.667 6 33c0 22.667 -7.33301 41.667 -22 57c-15.333 16 -34.333 24 -57 24c-15.333 0 -28 -2 -38 -6c-9.33301 -4 -17.666 -10 -24.999 -18c-6.66699 -7.33301 -12 -16.666 -16 -27.999c-2 -5.33301 -3.83301 -10.666 -5.5 -15.999s-3.16699 -11 -4.5 -17
l-111 64l3.5 9l3.5 9c11.333 27.333 25.666 50.666 42.999 69.999c18 20 39.667 35.667 65 47c26 11.333 54.667 17 86 17c28.667 0 55.667 -6 81 -18c24.667 -12 46 -27.333 64 -46c18 -19.333 32 -41.333 42 -66c10 -25.333 15 -52 15 -80c0 -26 -4 -52 -12 -78
c-8 -27.333 -21.333 -51 -40 -71c56.667 -50.667 85 -112.667 85 -186z" />
    <glyph glyph-name="four.001" horiz-adv-x="653" 
d="M593 258l-33 -123h-52v-108l-100 -27h-24v135h-344l402 635h66v-506h85v-6zM384 480l-127 -216h127v216z" />
    <glyph glyph-name="five.001" horiz-adv-x="636" 
d="M537 237c0 -36.667 -6 -70.332 -18 -100.999c-12 -31.333 -29 -58.333 -51 -81s-48.667 -40.667 -80 -54c-32 -13.333 -66 -20 -102 -20c-26 0 -50 4 -72 12c-22.667 8 -43.334 19 -62.001 33s-36 30.333 -52 49s-31 38.667 -45 60l100 75
c3.33301 -5.33301 7 -10.833 11 -16.5s8.33301 -11.5 13 -17.5c8.66699 -11.333 18.667 -21.666 30 -30.999c12 -10 24 -17.667 36 -23c12.667 -6 26.667 -9 42 -9c17.333 0 34 3.66699 50 11c15.333 7.33301 28.333 16.666 39 27.999c11.333 12.667 20 26.667 26 42
c6 16 9 32.667 9 50s-3 34 -9 50c-6 15.333 -14.667 29.333 -26 42c-10.667 11.333 -23.667 20.666 -39 27.999c-16 7.33301 -32.667 11 -50 11c-12.667 0 -26 -2 -40 -6c-7.33301 -2 -14.166 -4 -20.499 -6l-19.5 -6l-66 56l79 355h302v-130h-205l-34 -163h9
c3.33301 0 6.83301 0.166992 10.5 0.5s7.16699 0.833008 10.5 1.5s6.83301 1.16699 10.5 1.5s7.16699 0.5 10.5 0.5c34.667 0 64.667 -6 90 -18c24.667 -12 45.667 -29 63 -51c16.667 -21.333 29 -46.333 37 -75c8 -28 12 -58 12 -90z" />
    <glyph glyph-name="six.001" horiz-adv-x="640" 
d="M565 243c0 -36 -6.33496 -68.999 -19.002 -98.999c-13.333 -31.333 -30.666 -58.333 -51.999 -81c-22.667 -24 -49 -42.667 -79 -56c-31.333 -14 -64.333 -21 -99 -21c-36 0 -69 7 -99 21s-56 33 -78 57c-21.333 23.333 -38.666 50.666 -51.999 81.999
c-12.667 30 -19 63 -19 99c0 31.333 6 61.666 18 90.999c6 14.667 12.667 29 20 43s15.333 27.667 24 41l219 349h149l-166 -266c37.333 -2 70 -10.333 98 -25c29.333 -15.333 54.333 -34.666 75 -57.999c20.667 -24 36.667 -51 48 -81c11.333 -30.667 17 -61.667 17 -93z
M436.998 240.001c0 16.667 -3 32.999 -9 48.999c-6 15.333 -14.667 29.333 -26 42c-10.667 11.333 -23.667 20.666 -39 27.999c-16 7.33301 -32.333 11 -49 11c-18.667 0 -35 -3.33301 -49 -10c-15.333 -7.33301 -28.333 -16.666 -39 -27.999
c-11.333 -12.667 -20 -26.667 -26 -42c-6 -16 -9 -32.333 -9 -49c0 -17.333 3 -33.333 9 -48c5.33301 -14 14 -27.333 26 -40c10.667 -11.333 23.667 -20.666 39 -27.999c14 -6.66699 30.667 -10 50 -10c17.333 0 34 3.66699 50 11c15.333 7.33301 28.333 16.666 39 27.999
c11.333 12.667 20 26.334 26 41.001s9 30.667 9 48z" />
    <glyph glyph-name="seven.001" horiz-adv-x="536" 
d="M185 0h-153l324 641h-336v129h546z" />
    <glyph glyph-name="eight.001" horiz-adv-x="608" 
d="M539 233c0 -32 -6 -63 -18 -93s-29 -56 -51 -78c-22.667 -22.667 -48 -40.334 -76 -53.001c-30 -13.333 -61 -20 -93 -20s-63 6.66699 -93 20c-28.667 12.667 -53.667 30.334 -75 53.001s-38 48.667 -50 78c-12 30 -18 61 -18 93c0 36.667 7.33301 71.667 22 105
c15.333 34.667 36.666 64.667 63.999 90c-36 42.667 -54 90 -54 142c0 30 5.33301 57 16 81c10.667 24.667 25.334 46.667 44.001 66c18 18.667 39.667 33.667 65 45c26 11.333 53 17 81 17s55 -5.66699 81 -17c24.667 -11.333 46.667 -26.333 66 -45
c18.667 -19.333 33.667 -41.333 45 -66c10.667 -24 16 -51 16 -81c0 -51.333 -18.333 -98.333 -55 -141c28.667 -26 50.667 -56 66 -90c14.667 -33.333 22 -68.333 22 -105zM409 581c0 13.333 -2.66602 26.999 -7.99902 40.999c-5.33301 12.667 -12.666 24 -21.999 34
c-4.66699 4.66699 -9.83398 8.83398 -15.501 12.501s-11.834 7.16699 -18.501 10.5c-13.333 6 -27 9 -41 9c-29.333 0 -54.333 -10.667 -75 -32s-31 -46.333 -31 -75s10 -53.334 30 -74.001c18.667 -20.667 43 -31 73 -31s55 10.333 75 31
c20.667 20.667 31 45.334 31 74.001h2zM414.001 233.999c0 15.333 -3 30.666 -9 45.999c-6 14.667 -14 27.667 -24 39c-10.667 11.333 -22.667 20 -36 26c-14 6 -29.333 9 -46 9s-32 -3 -46 -9c-14.667 -6 -26.667 -14.333 -36 -25c-10 -11.333 -18 -24.333 -24 -39
c-6 -15.333 -9 -30.666 -9 -45.999c0 -16 3 -31 9 -45s14 -26 24 -36s22 -18 36 -24s29.333 -9 46 -9s32 3 46 9s26 14 36 24s18 22 24 36s9 29 9 45v-1z" />
    <glyph glyph-name="nine.001" horiz-adv-x="640" 
d="M570 526c0 -32 -6.00195 -62.332 -18.002 -90.999c-6 -14.667 -12.5 -29 -19.5 -43s-14.833 -27.667 -23.5 -41l-219 -349h-149l166 266c-34.667 2 -67 10.667 -97 26c-29.333 15.333 -54.333 34.666 -75 57.999c-21.333 24 -37.333 51 -48 81
c-11.333 30.667 -17 61.667 -17 93c0 36 6.33301 69 19 99c12.667 30.667 30.334 57.667 53.001 81c22 23.333 48.667 42 80 56c30.667 14 63.667 21 99 21c36 0 69 -7 99 -21s56 -33 78 -57c22.667 -24.667 40.334 -52 53.001 -82s19 -63 19 -99v2zM441.998 523.001
c0 16.667 -3 32.999 -9 48.999c-6 15.333 -14.667 29.333 -26 42c-10.667 11.333 -23.667 20.666 -39 27.999c-16 7.33301 -32.333 11 -49 11c-18.667 0 -35 -3.33301 -49 -10c-15.333 -7.33301 -28.333 -16.666 -39 -27.999c-11.333 -12.667 -20 -26.667 -26 -42
c-6 -16 -9 -32.333 -9 -49c0 -17.333 3 -33.333 9 -48c5.33301 -14 14 -27.333 26 -40c10.667 -11.333 23.667 -20.666 39 -27.999c14 -6.66699 30.667 -10 50 -10c17.333 0 34 3.66699 50 11c15.333 7.33301 28.333 16.666 39 27.999c11.333 12.667 20 26.334 26 41.001
s9 30.667 9 48z" />
    <glyph glyph-name="colon.001" horiz-adv-x="334" 
d="M260 84c0 -27.333 -8.99902 -50.334 -26.999 -69.001s-41 -28 -69 -28c-27.333 0 -50.333 9.33301 -69 28s-28 41.667 -28 69c0 12.667 2.66699 25.334 8 38.001c4.66699 11.333 11.667 21.666 21 30.999s19.666 16.333 30.999 21c12.667 5.33301 25.334 8 38.001 8
c14 0 26.667 -2.33301 38 -7s21.666 -11.667 30.999 -21s16.333 -19.666 21 -30.999c5.33301 -12.667 8 -25 8 -37zM257.001 504.999c0 -27.333 -8.99902 -50.334 -26.999 -69.001s-41 -28 -69 -28c-27.333 0 -50.333 9.33301 -69 28s-28 41.667 -28 69
c0 12.667 2.66699 25.334 8 38.001c4.66699 11.333 11.667 21.666 21 30.999s19.666 16.333 30.999 21c12.667 5.33301 25.334 8 38.001 8c14 0 26.667 -2.33301 38 -7s21.666 -11.667 30.999 -21s16.333 -19.666 21 -30.999c5.33301 -12.667 8 -25 8 -37z" />
    <glyph glyph-name="semicolon.001" horiz-adv-x="354" 
d="M270 507c0 -27.333 -8.99902 -50.334 -26.999 -69.001s-41 -28 -69 -28c-27.333 0 -50.333 9.33301 -69 28s-28 41.667 -28 69c0 12.667 2.66699 25.334 8 38.001c4.66699 11.333 11.667 21.666 21 30.999s19.666 16.333 30.999 21c12.667 5.33301 25.334 8 38.001 8
c14 0 26.667 -2.33301 38 -7s21.666 -11.667 30.999 -21s16.333 -19.666 21 -30.999c5.33301 -12.667 8 -25 8 -37zM181.001 -198.001h-84v297h154z" />
    <glyph glyph-name="less.001" horiz-adv-x="536" 
d="M75 341v89l386 188v-129l-216 -106l216 -114v-133z" />
    <glyph glyph-name="equal.001" horiz-adv-x="558" 
d="M55 452v137h448v-137h-448zM55 182v137h448v-137h-448z" />
    <glyph glyph-name="greater.001" horiz-adv-x="536" 
d="M75 136v133l216 114l-216 106v129l386 -188v-89z" />
    </font>
</defs>
</svg>
